<svg width="250" height="73" viewBox="0 0 250 73" fill="none" xmlns="http://www.w3.org/2000/svg">
<mask id="path-1-outside-1_312_1037" maskUnits="userSpaceOnUse" x="-0.65625" y="9" width="158" height="55" fill="black">
<rect fill="white" x="-0.65625" y="9" width="158" height="55"/>
<path d="M6.38664 52.7925V22.0593C6.38664 20.7205 6.10263 19.5642 5.53463 18.5904C4.96662 17.6167 4.25662 17.1299 3.40461 17.1299V15.791C3.68861 15.7504 5.89978 14.513 10.0381 12.0787C10.3221 12.1598 10.667 12.2815 11.0727 12.4438C11.4784 12.5655 12.0058 12.951 12.655 13.6001C13.3447 14.2493 13.6896 14.9998 13.6896 15.8518C13.933 15.7301 14.6227 15.3447 15.7587 14.6956C18.761 12.9915 20.6071 12.1395 21.2968 12.1395C22.0271 12.1395 22.8182 12.5047 23.6702 13.235C24.5628 13.9653 25.2323 14.8376 25.6785 15.8518C25.7597 15.8113 26.5914 15.3853 28.1737 14.5738C31.3383 12.951 33.2452 12.1395 33.8943 12.1395C35.1926 12.1395 36.4098 12.9915 37.5458 14.6956C38.6818 16.3996 39.2498 17.9616 39.2498 19.3816V49.9931C39.2498 52.2245 40.2438 53.5431 42.2319 53.9488V55.2877L35.5984 59C34.7058 58.6349 33.8741 58.0466 33.1032 57.2351C32.3323 56.3831 31.9469 55.592 31.9469 54.8617V25.0414C31.9469 22.6071 31.5412 20.9233 30.7297 19.9902C29.9589 19.0165 28.5389 18.489 26.4697 18.4079V49.9931C26.4697 52.2245 27.4637 53.5431 29.4517 53.9488V55.2877L22.8182 59C21.9257 58.6349 21.0939 58.0466 20.3231 57.2351C19.5522 56.3831 19.1668 55.592 19.1668 54.8617V25.0414C19.1668 22.4853 18.7813 20.7408 18.0105 19.8076C17.2802 18.8745 15.8399 18.4079 13.6896 18.4079V49.6279C13.6896 51.1291 13.8519 52.2042 14.1764 52.8534C14.501 53.5025 15.1704 53.8271 16.1847 53.8271V55.7137L3.7089 60.9474L2.73517 59C3.62775 59 4.47976 58.4726 5.2912 57.4177C6.02149 56.4034 6.38664 54.8617 6.38664 52.7925ZM45.3142 50.1148V29.91C45.3142 29.626 47.6268 28.632 52.252 26.928C56.8772 25.1834 59.5346 24.3111 60.2244 24.3111C60.9141 24.3111 61.9487 25.1428 63.3281 26.8062C64.7481 28.4697 65.4581 29.9708 65.4581 31.3097V53.3402C65.4581 53.6648 63.2267 54.6994 58.7638 56.444C54.3414 58.148 51.6231 59 50.6088 59C49.6351 59 48.4991 58.1277 47.2008 56.3831C45.9431 54.6385 45.3142 52.5491 45.3142 50.1148ZM55.7209 53.4011C56.4917 53.4011 57.2829 53.0765 58.0943 52.4274V34.4743C58.0943 31.472 57.0598 29.9708 54.9906 29.9708C54.1792 29.9708 53.388 30.2751 52.6171 30.8837V48.8976C52.6171 51.8999 53.6517 53.4011 55.7209 53.4011ZM74.3229 45.6722C73.3086 45.6722 72.4363 44.9013 71.706 43.3596C70.9757 41.8178 70.6106 39.9312 70.6106 37.6998V31.1271C70.6106 30.3563 72.7406 29.0377 77.0006 27.1714C81.2607 25.2645 83.7153 24.3111 84.3644 24.3111C84.7296 24.3111 85.0542 24.5342 85.3382 24.9805C85.6222 25.3862 85.8453 25.7311 86.0076 26.0151C86.1699 26.2585 86.4133 26.7048 86.7379 27.354C87.103 27.9625 87.4073 28.4697 87.6508 28.8754C88.1782 29.8491 88.8476 30.336 89.6591 30.336V31.5532C89.0099 31.8372 88.1579 32.2632 87.103 32.8312C84.5064 34.2512 83.1067 34.9612 82.9038 34.9612C82.2953 34.9612 81.6258 33.9672 80.8955 31.9792C80.2058 29.9911 79.577 28.9971 79.009 28.9971C78.2787 28.9971 77.9135 29.6057 77.9135 30.8229V38.3084C77.9135 39.9312 78.2787 40.7427 79.009 40.7427C79.1712 40.7427 80.429 40.2152 82.7821 39.1604C85.1353 38.1055 86.5553 37.5781 87.0422 37.5781C88.0159 37.5781 88.8679 38.3692 89.5982 39.9515C90.3691 41.4933 90.7545 43.4813 90.7545 45.9156V52.7925C90.7545 53.5634 88.4216 54.9022 83.7559 56.8091C79.1307 58.6754 76.4732 59.6086 75.7835 59.6086C75.4995 59.6086 75.2155 59.3651 74.9315 58.8783C74.6881 58.3509 74.3229 57.5597 73.836 56.5048C73.3898 55.45 72.9435 54.5574 72.4972 53.8271C71.9697 52.8534 71.3003 52.3665 70.4889 52.3665V51.1493C71.138 50.8653 72.0103 50.4393 73.1057 49.8713C75.6618 48.4513 77.0412 47.7413 77.2441 47.7413C77.8527 47.7413 78.6032 48.9382 79.4958 51.3319C80.429 53.7257 81.1795 54.9225 81.7476 54.9225C82.1533 54.9225 82.5387 54.7602 82.9038 54.4357C83.269 54.1111 83.4516 53.6648 83.4516 53.0968V45.4896C83.4516 43.6638 82.9444 42.751 81.9301 42.751C81.6056 42.751 80.3275 43.2378 78.0961 44.2116C75.8646 45.1853 74.6069 45.6722 74.3229 45.6722ZM115.053 32.3443V49.567C115.053 51.0682 115.297 52.1231 115.784 52.7317C116.271 53.2997 117.021 53.7054 118.035 53.9488V55.2877L111.402 59C110.509 58.6349 109.678 58.0466 108.907 57.2351C108.136 56.3831 107.75 55.6123 107.75 54.9225L100.143 59C100.022 58.9189 99.8389 58.8174 99.5955 58.6957C99.3521 58.5334 98.9261 58.2291 98.3175 57.7828C97.7495 57.296 97.2423 56.7888 96.7961 56.2614C95.5789 54.9225 94.9703 53.4011 94.9703 51.6971V41.7164C94.9703 41.0672 96.0252 40.2355 98.1349 39.2212C100.245 38.2069 102.354 37.3752 104.464 36.7261L107.69 35.6915C107.69 33.3789 107.081 31.7763 105.864 30.8837C104.647 29.9506 102.294 29.484 98.8044 29.484V27.6583C105.093 25.4268 108.623 24.3111 109.394 24.3111C110.732 24.3111 112.01 25.1834 113.228 26.928C114.445 28.6726 115.053 30.478 115.053 32.3443ZM102.273 49.5062C102.273 50.5611 102.578 51.4334 103.186 52.1231C103.835 52.7722 104.545 53.0968 105.316 53.0968C106.087 53.0968 106.898 52.7925 107.75 52.1839V38.4301C106.736 38.7952 105.965 39.0995 105.438 39.3429C104.951 39.5864 104.424 39.9718 103.856 40.4992C102.801 41.473 102.273 43.1567 102.273 45.5504V49.5062ZM128.452 28.4494V49.9931C128.452 52.4679 129.283 53.8677 130.947 54.1922V55.5311L124.8 59C123.908 58.6349 123.076 58.0466 122.305 57.2351C121.534 56.3831 121.149 55.592 121.149 54.8617V33.318C121.149 30.8431 120.317 29.4434 118.654 29.1188V27.78L124.8 24.3111C125.693 24.6762 126.524 25.2848 127.295 26.1368C128.066 26.9482 128.452 27.7191 128.452 28.4494ZM120.236 16.7039V12.9915C120.236 12.8698 121.068 12.5047 122.731 11.8961C124.435 11.2469 125.409 10.9224 125.652 10.9224C125.936 10.9224 126.322 11.2672 126.808 11.957C127.336 12.6467 127.6 13.3567 127.6 14.087V18.5296C127.6 18.6513 126.788 19.0367 125.165 19.6859C123.542 20.2945 122.548 20.5988 122.183 20.5988C121.818 20.5988 121.392 20.2539 120.905 19.5642C120.459 18.8339 120.236 17.8804 120.236 16.7039ZM142.919 30.2143C142.513 30.2143 142.148 30.4171 141.824 30.8229V47.6196C141.824 50.7436 143.163 52.6708 145.84 53.4011C147.22 53.7257 148.863 53.8879 150.77 53.8879V55.6528C144.116 57.8843 140.566 59 140.12 59C138.902 59 137.665 58.148 136.407 56.444C135.15 54.6994 134.521 52.6708 134.521 50.3582V29.91C134.521 29.626 136.833 28.632 141.459 26.928C146.124 25.1834 148.802 24.3111 149.492 24.3111C149.735 24.3111 150.019 24.8994 150.344 26.076C150.668 27.2525 151.033 28.6726 151.439 30.336C151.885 31.9994 152.332 33.2369 152.778 34.0483C153.265 34.8192 154.158 35.2046 155.456 35.2046V36.4218C154.563 36.8275 153.042 37.5578 150.891 38.6127C148.782 39.6269 147.646 40.1341 147.483 40.1341C146.875 40.1341 146.104 38.4909 145.171 35.2046C144.238 31.8777 143.487 30.2143 142.919 30.2143Z"/>
</mask>
<path d="M6.38664 52.7925V22.0593C6.38664 20.7205 6.10263 19.5642 5.53463 18.5904C4.96662 17.6167 4.25662 17.1299 3.40461 17.1299V15.791C3.68861 15.7504 5.89978 14.513 10.0381 12.0787C10.3221 12.1598 10.667 12.2815 11.0727 12.4438C11.4784 12.5655 12.0058 12.951 12.655 13.6001C13.3447 14.2493 13.6896 14.9998 13.6896 15.8518C13.933 15.7301 14.6227 15.3447 15.7587 14.6956C18.761 12.9915 20.6071 12.1395 21.2968 12.1395C22.0271 12.1395 22.8182 12.5047 23.6702 13.235C24.5628 13.9653 25.2323 14.8376 25.6785 15.8518C25.7597 15.8113 26.5914 15.3853 28.1737 14.5738C31.3383 12.951 33.2452 12.1395 33.8943 12.1395C35.1926 12.1395 36.4098 12.9915 37.5458 14.6956C38.6818 16.3996 39.2498 17.9616 39.2498 19.3816V49.9931C39.2498 52.2245 40.2438 53.5431 42.2319 53.9488V55.2877L35.5984 59C34.7058 58.6349 33.8741 58.0466 33.1032 57.2351C32.3323 56.3831 31.9469 55.592 31.9469 54.8617V25.0414C31.9469 22.6071 31.5412 20.9233 30.7297 19.9902C29.9589 19.0165 28.5389 18.489 26.4697 18.4079V49.9931C26.4697 52.2245 27.4637 53.5431 29.4517 53.9488V55.2877L22.8182 59C21.9257 58.6349 21.0939 58.0466 20.3231 57.2351C19.5522 56.3831 19.1668 55.592 19.1668 54.8617V25.0414C19.1668 22.4853 18.7813 20.7408 18.0105 19.8076C17.2802 18.8745 15.8399 18.4079 13.6896 18.4079V49.6279C13.6896 51.1291 13.8519 52.2042 14.1764 52.8534C14.501 53.5025 15.1704 53.8271 16.1847 53.8271V55.7137L3.7089 60.9474L2.73517 59C3.62775 59 4.47976 58.4726 5.2912 57.4177C6.02149 56.4034 6.38664 54.8617 6.38664 52.7925ZM45.3142 50.1148V29.91C45.3142 29.626 47.6268 28.632 52.252 26.928C56.8772 25.1834 59.5346 24.3111 60.2244 24.3111C60.9141 24.3111 61.9487 25.1428 63.3281 26.8062C64.7481 28.4697 65.4581 29.9708 65.4581 31.3097V53.3402C65.4581 53.6648 63.2267 54.6994 58.7638 56.444C54.3414 58.148 51.6231 59 50.6088 59C49.6351 59 48.4991 58.1277 47.2008 56.3831C45.9431 54.6385 45.3142 52.5491 45.3142 50.1148ZM55.7209 53.4011C56.4917 53.4011 57.2829 53.0765 58.0943 52.4274V34.4743C58.0943 31.472 57.0598 29.9708 54.9906 29.9708C54.1792 29.9708 53.388 30.2751 52.6171 30.8837V48.8976C52.6171 51.8999 53.6517 53.4011 55.7209 53.4011ZM74.3229 45.6722C73.3086 45.6722 72.4363 44.9013 71.706 43.3596C70.9757 41.8178 70.6106 39.9312 70.6106 37.6998V31.1271C70.6106 30.3563 72.7406 29.0377 77.0006 27.1714C81.2607 25.2645 83.7153 24.3111 84.3644 24.3111C84.7296 24.3111 85.0542 24.5342 85.3382 24.9805C85.6222 25.3862 85.8453 25.7311 86.0076 26.0151C86.1699 26.2585 86.4133 26.7048 86.7379 27.354C87.103 27.9625 87.4073 28.4697 87.6508 28.8754C88.1782 29.8491 88.8476 30.336 89.6591 30.336V31.5532C89.0099 31.8372 88.1579 32.2632 87.103 32.8312C84.5064 34.2512 83.1067 34.9612 82.9038 34.9612C82.2953 34.9612 81.6258 33.9672 80.8955 31.9792C80.2058 29.9911 79.577 28.9971 79.009 28.9971C78.2787 28.9971 77.9135 29.6057 77.9135 30.8229V38.3084C77.9135 39.9312 78.2787 40.7427 79.009 40.7427C79.1712 40.7427 80.429 40.2152 82.7821 39.1604C85.1353 38.1055 86.5553 37.5781 87.0422 37.5781C88.0159 37.5781 88.8679 38.3692 89.5982 39.9515C90.3691 41.4933 90.7545 43.4813 90.7545 45.9156V52.7925C90.7545 53.5634 88.4216 54.9022 83.7559 56.8091C79.1307 58.6754 76.4732 59.6086 75.7835 59.6086C75.4995 59.6086 75.2155 59.3651 74.9315 58.8783C74.6881 58.3509 74.3229 57.5597 73.836 56.5048C73.3898 55.45 72.9435 54.5574 72.4972 53.8271C71.9697 52.8534 71.3003 52.3665 70.4889 52.3665V51.1493C71.138 50.8653 72.0103 50.4393 73.1057 49.8713C75.6618 48.4513 77.0412 47.7413 77.2441 47.7413C77.8527 47.7413 78.6032 48.9382 79.4958 51.3319C80.429 53.7257 81.1795 54.9225 81.7476 54.9225C82.1533 54.9225 82.5387 54.7602 82.9038 54.4357C83.269 54.1111 83.4516 53.6648 83.4516 53.0968V45.4896C83.4516 43.6638 82.9444 42.751 81.9301 42.751C81.6056 42.751 80.3275 43.2378 78.0961 44.2116C75.8646 45.1853 74.6069 45.6722 74.3229 45.6722ZM115.053 32.3443V49.567C115.053 51.0682 115.297 52.1231 115.784 52.7317C116.271 53.2997 117.021 53.7054 118.035 53.9488V55.2877L111.402 59C110.509 58.6349 109.678 58.0466 108.907 57.2351C108.136 56.3831 107.75 55.6123 107.75 54.9225L100.143 59C100.022 58.9189 99.8389 58.8174 99.5955 58.6957C99.3521 58.5334 98.9261 58.2291 98.3175 57.7828C97.7495 57.296 97.2423 56.7888 96.7961 56.2614C95.5789 54.9225 94.9703 53.4011 94.9703 51.6971V41.7164C94.9703 41.0672 96.0252 40.2355 98.1349 39.2212C100.245 38.2069 102.354 37.3752 104.464 36.7261L107.69 35.6915C107.69 33.3789 107.081 31.7763 105.864 30.8837C104.647 29.9506 102.294 29.484 98.8044 29.484V27.6583C105.093 25.4268 108.623 24.3111 109.394 24.3111C110.732 24.3111 112.01 25.1834 113.228 26.928C114.445 28.6726 115.053 30.478 115.053 32.3443ZM102.273 49.5062C102.273 50.5611 102.578 51.4334 103.186 52.1231C103.835 52.7722 104.545 53.0968 105.316 53.0968C106.087 53.0968 106.898 52.7925 107.75 52.1839V38.4301C106.736 38.7952 105.965 39.0995 105.438 39.3429C104.951 39.5864 104.424 39.9718 103.856 40.4992C102.801 41.473 102.273 43.1567 102.273 45.5504V49.5062ZM128.452 28.4494V49.9931C128.452 52.4679 129.283 53.8677 130.947 54.1922V55.5311L124.8 59C123.908 58.6349 123.076 58.0466 122.305 57.2351C121.534 56.3831 121.149 55.592 121.149 54.8617V33.318C121.149 30.8431 120.317 29.4434 118.654 29.1188V27.78L124.8 24.3111C125.693 24.6762 126.524 25.2848 127.295 26.1368C128.066 26.9482 128.452 27.7191 128.452 28.4494ZM120.236 16.7039V12.9915C120.236 12.8698 121.068 12.5047 122.731 11.8961C124.435 11.2469 125.409 10.9224 125.652 10.9224C125.936 10.9224 126.322 11.2672 126.808 11.957C127.336 12.6467 127.6 13.3567 127.6 14.087V18.5296C127.6 18.6513 126.788 19.0367 125.165 19.6859C123.542 20.2945 122.548 20.5988 122.183 20.5988C121.818 20.5988 121.392 20.2539 120.905 19.5642C120.459 18.8339 120.236 17.8804 120.236 16.7039ZM142.919 30.2143C142.513 30.2143 142.148 30.4171 141.824 30.8229V47.6196C141.824 50.7436 143.163 52.6708 145.84 53.4011C147.22 53.7257 148.863 53.8879 150.77 53.8879V55.6528C144.116 57.8843 140.566 59 140.12 59C138.902 59 137.665 58.148 136.407 56.444C135.15 54.6994 134.521 52.6708 134.521 50.3582V29.91C134.521 29.626 136.833 28.632 141.459 26.928C146.124 25.1834 148.802 24.3111 149.492 24.3111C149.735 24.3111 150.019 24.8994 150.344 26.076C150.668 27.2525 151.033 28.6726 151.439 30.336C151.885 31.9994 152.332 33.2369 152.778 34.0483C153.265 34.8192 154.158 35.2046 155.456 35.2046V36.4218C154.563 36.8275 153.042 37.5578 150.891 38.6127C148.782 39.6269 147.646 40.1341 147.483 40.1341C146.875 40.1341 146.104 38.4909 145.171 35.2046C144.238 31.8777 143.487 30.2143 142.919 30.2143Z" fill="black"/>
<path d="M5.53463 18.5905L6.99484 17.7387V17.7387L5.53463 18.5905ZM3.40461 17.1299H1.71411V18.8204H3.40461V17.1299ZM3.40461 15.791L3.16554 14.1175L1.71411 14.3248V15.791H3.40461ZM10.0381 12.0787L10.5025 10.4532L9.80566 10.2541L9.18099 10.6216L10.0381 12.0787ZM11.0727 12.4438L10.4449 14.0134L10.5148 14.0414L10.5869 14.063L11.0727 12.4438ZM12.655 13.6001L11.4596 14.7955L11.4777 14.8136L11.4964 14.8311L12.655 13.6001ZM13.6896 15.8518H11.9991V18.5871L14.4456 17.3639L13.6896 15.8518ZM15.7587 14.6956L14.9243 13.2253L14.92 13.2278L15.7587 14.6956ZM23.6702 13.235L22.5701 14.5185L22.5848 14.5311L22.5998 14.5433L23.6702 13.235ZM25.6785 15.8518L24.1312 16.5327L24.8463 18.158L26.4345 17.3639L25.6785 15.8518ZM28.1737 14.5738L28.9451 16.0781H28.9451L28.1737 14.5738ZM42.2319 53.9488H43.9224V52.5685L42.5699 52.2925L42.2319 53.9488ZM42.2319 55.2877L43.0574 56.7629L43.9224 56.2788V55.2877H42.2319ZM35.5984 59L34.9583 60.5646L35.7127 60.8732L36.4239 60.4752L35.5984 59ZM33.1032 57.2351L31.8496 58.3693L31.8634 58.3845L31.8776 58.3995L33.1032 57.2351ZM30.7297 19.9902L29.4043 21.0395L29.4285 21.07L29.4541 21.0994L30.7297 19.9902ZM26.4697 18.4079L26.5359 16.7187L24.7792 16.6498V18.4079H26.4697ZM29.4517 53.9488H31.1422V52.5685L29.7898 52.2925L29.4517 53.9488ZM29.4517 55.2877L30.2773 56.7629L31.1422 56.2788V55.2877H29.4517ZM22.8182 59L22.1782 60.5646L22.9325 60.8732L23.6438 60.4752L22.8182 59ZM20.3231 57.2351L19.0695 58.3693L19.0833 58.3845L19.0975 58.3995L20.3231 57.2351ZM18.0105 19.8076L16.6792 20.8495L16.693 20.867L16.7072 20.8842L18.0105 19.8076ZM13.6896 18.4079V16.7174H11.9991V18.4079H13.6896ZM16.1847 53.8271H17.8752V52.1366H16.1847V53.8271ZM16.1847 55.7137L16.8387 57.2726L17.8752 56.8377V55.7137H16.1847ZM3.7089 60.9474L2.19687 61.7035L2.90426 63.1182L4.36286 62.5063L3.7089 60.9474ZM2.73517 59V57.3095H-0.000102997L1.22315 59.756L2.73517 59ZM5.2912 57.4177L6.63112 58.4484L6.64745 58.4272L6.66309 58.4055L5.2912 57.4177ZM6.38664 52.7925H8.07713V22.0593H6.38664H4.69614V52.7925H6.38664ZM6.38664 22.0593H8.07713C8.07713 20.4776 7.73977 19.0157 6.99484 17.7387L5.53463 18.5905L4.07442 19.4422C4.4655 20.1127 4.69614 20.9633 4.69614 22.0593H6.38664ZM5.53463 18.5905L6.99484 17.7387C6.23541 16.4368 5.05048 15.4394 3.40461 15.4394V17.1299V18.8204C3.46275 18.8204 3.69783 18.7967 4.07442 19.4422L5.53463 18.5905ZM3.40461 17.1299H5.0951V15.791H3.40461H1.71411V17.1299H3.40461ZM3.40461 15.791L3.64368 17.4645C3.9486 17.4209 4.22464 17.2926 4.28707 17.2649C4.42416 17.2041 4.58156 17.1268 4.74961 17.0408C5.08909 16.8669 5.54257 16.6205 6.10155 16.3077C7.22324 15.6799 8.82306 14.7547 10.8952 13.5358L10.0381 12.0787L9.18099 10.6216C7.11482 11.837 5.53989 12.7476 4.45042 13.3573C3.90382 13.6632 3.4926 13.8859 3.2083 14.0315C3.06445 14.1052 2.97018 14.1503 2.91582 14.1745C2.7868 14.2317 2.93162 14.1509 3.16554 14.1175L3.40461 15.791ZM10.0381 12.0787L9.57369 13.7041C9.78292 13.7639 10.0699 13.8634 10.4449 14.0134L11.0727 12.4438L11.7005 10.8742C11.264 10.6996 10.8613 10.5557 10.5025 10.4532L10.0381 12.0787ZM11.0727 12.4438L10.5869 14.063C10.5345 14.0473 10.5916 14.055 10.7751 14.1891C10.9468 14.3145 11.174 14.5098 11.4596 14.7955L12.655 13.6001L13.8503 12.4048C13.1834 11.7378 12.4002 11.0772 11.5584 10.8246L11.0727 12.4438ZM12.655 13.6001L11.4964 14.8311C11.8886 15.2003 11.9991 15.5206 11.9991 15.8518H13.6896H15.3801C15.3801 14.4791 14.8008 13.2982 13.8136 12.3691L12.655 13.6001ZM13.6896 15.8518L14.4456 17.3639C14.7416 17.2158 15.4816 16.8009 16.5975 16.1633L15.7587 14.6956L14.92 13.2278C13.7639 13.8885 13.1244 14.2444 12.9336 14.3398L13.6896 15.8518ZM15.7587 14.6956L16.5932 16.1658C18.0773 15.3234 19.2426 14.7107 20.1034 14.3134C20.5348 14.1143 20.8634 13.9816 21.1011 13.9017C21.3756 13.8095 21.4076 13.83 21.2968 13.83V12.1395V10.449C20.8412 10.449 20.3838 10.576 20.0243 10.6968C19.628 10.83 19.1782 11.0167 18.6866 11.2436C17.7013 11.6984 16.4425 12.3637 14.9243 13.2254L15.7587 14.6956ZM21.2968 12.1395V13.83C21.4559 13.83 21.8671 13.9159 22.5701 14.5185L23.6702 13.235L24.7704 11.9515C23.7694 11.0934 22.5983 10.449 21.2968 10.449V12.1395ZM23.6702 13.235L22.5998 14.5433C23.2948 15.112 23.7966 15.7723 24.1312 16.5327L25.6785 15.8518L27.2259 15.171C26.6679 13.9028 25.8308 12.8185 24.7407 11.9266L23.6702 13.235ZM25.6785 15.8518L26.4345 17.3639C26.5259 17.3182 27.3711 16.8853 28.9451 16.0781L28.1737 14.5738L27.4023 13.0696C26.6112 13.4753 26.008 13.7845 25.5925 13.9973C25.3848 14.1037 25.2242 14.1859 25.1108 14.2439C25.054 14.2729 25.0094 14.2956 24.9768 14.3123C24.9605 14.3206 24.9476 14.3272 24.9378 14.3321C24.933 14.3346 24.9292 14.3365 24.9264 14.3379C24.9234 14.3394 24.9223 14.34 24.9225 14.3398L25.6785 15.8518ZM28.1737 14.5738L28.9451 16.0781C30.513 15.274 31.7399 14.6863 32.6392 14.3036C33.0901 14.1118 33.4342 13.982 33.6832 13.9029C33.9744 13.8105 34.007 13.83 33.8943 13.83V12.1395V10.449C33.4572 10.449 33.0079 10.57 32.6602 10.6804C32.2701 10.8042 31.818 10.9787 31.3154 11.1926C30.3079 11.6213 28.9991 12.2508 27.4023 13.0696L28.1737 14.5738ZM33.8943 12.1395V13.83C34.3571 13.83 35.1291 14.1181 36.1392 15.6333L37.5458 14.6956L38.9524 13.7578C37.6905 11.865 36.0282 10.449 33.8943 10.449V12.1395ZM37.5458 14.6956L36.1392 15.6333C37.1681 17.1766 37.5593 18.4126 37.5593 19.3816H39.2498H40.9403C40.9403 17.5106 40.1955 15.6226 38.9524 13.7578L37.5458 14.6956ZM39.2498 19.3816H37.5593V49.9931H39.2498H40.9403V19.3816H39.2498ZM39.2498 49.9931H37.5593C37.5593 51.3484 37.8613 52.633 38.6454 53.6732C39.444 54.7325 40.5923 55.3395 41.8938 55.6052L42.2319 53.9488L42.5699 52.2925C41.8834 52.1524 41.5407 51.8972 41.3452 51.638C41.1354 51.3596 40.9403 50.8692 40.9403 49.9931H39.2498ZM42.2319 53.9488H40.5414V55.2877H42.2319H43.9224V53.9488H42.2319ZM42.2319 55.2877L41.4063 53.8125L34.7728 57.5248L35.5984 59L36.4239 60.4752L43.0574 56.7629L42.2319 55.2877ZM35.5984 59L36.2384 57.4354C35.5999 57.1741 34.9612 56.7365 34.3288 56.0708L33.1032 57.2351L31.8776 58.3995C32.7869 59.3566 33.8117 60.0956 34.9583 60.5646L35.5984 59ZM33.1032 57.2351L34.3568 56.101C33.7131 55.3896 33.6374 54.9892 33.6374 54.8617H31.9469H30.2564C30.2564 56.1947 30.9515 57.3767 31.8496 58.3693L33.1032 57.2351ZM31.9469 54.8617H33.6374V25.0414H31.9469H30.2564V54.8617H31.9469ZM31.9469 25.0414H33.6374C33.6374 22.5382 33.2445 20.3059 32.0054 18.8809L30.7297 19.9902L29.4541 21.0994C29.8378 21.5408 30.2564 22.6759 30.2564 25.0414H31.9469ZM30.7297 19.9902L32.0552 18.9409C30.824 17.3857 28.7795 16.8067 26.5359 16.7187L26.4697 18.4079L26.4035 20.0971C28.2983 20.1714 29.0937 20.6472 29.4043 21.0395L30.7297 19.9902ZM26.4697 18.4079H24.7792V49.9931H26.4697H28.1602V18.4079H26.4697ZM26.4697 49.9931H24.7792C24.7792 51.3484 25.0811 52.633 25.8653 53.6732C26.6639 54.7325 27.8121 55.3395 29.1137 55.6052L29.4517 53.9488L29.7898 52.2925C29.1033 52.1524 28.7606 51.8972 28.5651 51.638C28.3553 51.3596 28.1602 50.8692 28.1602 49.9931H26.4697ZM29.4517 53.9488H27.7612V55.2877H29.4517H31.1422V53.9488H29.4517ZM29.4517 55.2877L28.6262 53.8125L21.9927 57.5248L22.8182 59L23.6438 60.4752L30.2773 56.7629L29.4517 55.2877ZM22.8182 59L23.4583 57.4354C22.8198 57.1741 22.1811 56.7365 21.5487 56.0708L20.3231 57.2351L19.0975 58.3995C20.0067 59.3566 21.0315 60.0956 22.1782 60.5646L22.8182 59ZM20.3231 57.2351L21.5766 56.101C20.933 55.3896 20.8573 54.9892 20.8573 54.8617H19.1668H17.4763C17.4763 56.1947 18.1714 57.3767 19.0695 58.3693L20.3231 57.2351ZM19.1668 54.8617H20.8573V25.0414H19.1668H17.4763V54.8617H19.1668ZM19.1668 25.0414H20.8573C20.8573 23.6884 20.7562 22.4823 20.5284 21.4512C20.3033 20.4323 19.9315 19.4788 19.3138 18.731L18.0105 19.8076L16.7072 20.8842C16.8603 21.0696 17.0667 21.4549 17.227 22.1806C17.3846 22.8941 17.4763 23.8383 17.4763 25.0414H19.1668ZM18.0105 19.8076L19.3417 18.7657C18.1063 17.1872 15.9592 16.7174 13.6896 16.7174V18.4079V20.0984C15.7205 20.0984 16.454 20.5617 16.6792 20.8495L18.0105 19.8076ZM13.6896 18.4079H11.9991V49.6279H13.6896H15.3801V18.4079H13.6896ZM13.6896 49.6279H11.9991C11.9991 51.1688 12.1524 52.5853 12.6644 53.6094L14.1764 52.8534L15.6885 52.0974C15.5513 51.8231 15.3801 51.0893 15.3801 49.6279H13.6896ZM14.1764 52.8534L12.6644 53.6094C13.3862 55.0529 14.8226 55.5176 16.1847 55.5176V53.8271V52.1366C15.8452 52.1366 15.6965 52.0805 15.6595 52.0625C15.6451 52.0556 15.6524 52.057 15.6675 52.0718C15.6829 52.0869 15.6894 52.0992 15.6885 52.0974L14.1764 52.8534ZM16.1847 53.8271H14.4942V55.7137H16.1847H17.8752V53.8271H16.1847ZM16.1847 55.7137L15.5308 54.1548L3.05493 59.3886L3.7089 60.9474L4.36286 62.5063L16.8387 57.2726L16.1847 55.7137ZM3.7089 60.9474L5.22092 60.1914L4.2472 58.244L2.73517 59L1.22315 59.756L2.19687 61.7035L3.7089 60.9474ZM2.73517 59V60.6905C4.37145 60.6905 5.66222 59.708 6.63112 58.4484L5.2912 57.4177L3.95127 56.387C3.2973 57.2371 2.88406 57.3095 2.73517 57.3095V59ZM5.2912 57.4177L6.66309 58.4055C7.69683 56.9697 8.07713 55.005 8.07713 52.7925H6.38664H4.69614C4.69614 54.7183 4.34615 55.8371 3.9193 56.4299L5.2912 57.4177ZM52.252 26.928L52.8364 28.5143L52.8486 28.5097L52.252 26.928ZM63.3281 26.8062L62.0268 27.8853L62.0345 27.8946L62.0424 27.9038L63.3281 26.8062ZM58.7638 56.444L59.3716 58.0214L59.3792 58.0184L58.7638 56.444ZM47.2008 56.3831L45.8295 57.3717L45.837 57.3821L45.8446 57.3924L47.2008 56.3831ZM58.0943 52.4274L59.1504 53.7474L59.7848 53.2399V52.4274H58.0943ZM52.6171 30.8837L51.5696 29.5569L50.9266 30.0645V30.8837H52.6171ZM45.3142 50.1148H47.0047V29.91H45.3142H43.6237V50.1148H45.3142ZM45.3142 29.91H47.0047C47.0047 30.4442 46.7499 30.7905 46.6772 30.8844C46.5805 31.0091 46.4938 31.0782 46.4772 31.0914C46.4389 31.122 46.4504 31.1071 46.5655 31.0435C46.7801 30.9249 47.1523 30.747 47.7162 30.5046C48.8302 30.0258 50.5307 29.3637 52.8364 28.5142L52.252 26.928L51.6676 25.3417C49.3481 26.1963 47.5797 26.8832 46.3811 27.3984C45.7887 27.653 45.2937 27.8833 44.9301 28.0843C44.7562 28.1804 44.5509 28.303 44.368 28.449C44.2791 28.52 44.1383 28.6412 44.0054 28.8124C43.8965 28.9529 43.6237 29.3403 43.6237 29.91H45.3142ZM52.252 26.928L52.8486 28.5097C55.1527 27.6406 56.9469 26.9963 58.2412 26.5715C58.8898 26.3586 59.3941 26.207 59.7644 26.1105C60.1905 25.9994 60.2939 26.0016 60.2244 26.0016V24.3111V22.6206C59.8099 22.6206 59.3225 22.7318 58.9118 22.8388C58.4453 22.9603 57.8669 23.1359 57.1868 23.3591C55.8236 23.8066 53.9764 24.4708 51.6554 25.3462L52.252 26.928ZM60.2244 24.3111V26.0016C59.9612 26.0016 60.0028 25.8862 60.4584 26.2524C60.8497 26.567 61.3705 27.0939 62.0268 27.8853L63.3281 26.8062L64.6294 25.7271C63.9062 24.8551 63.2201 24.1345 62.5768 23.6173C61.9978 23.1519 61.1772 22.6206 60.2244 22.6206V24.3111ZM63.3281 26.8062L62.0424 27.9038C63.3555 29.4421 63.7676 30.56 63.7676 31.3097H65.4581H67.1486C67.1486 29.3817 66.1407 27.4973 64.6138 25.7087L63.3281 26.8062ZM65.4581 31.3097H63.7676V53.3402H65.4581H67.1486V31.3097H65.4581ZM65.4581 53.3402H63.7676C63.7676 52.8875 63.9537 52.5779 64.0307 52.4638C64.1187 52.3334 64.201 52.2581 64.2226 52.2387C64.2674 52.1984 64.2656 52.2089 64.1603 52.273C63.964 52.3926 63.6145 52.5751 63.0735 52.8259C62.0062 53.3208 60.3716 54.0004 58.1483 54.8695L58.7638 56.444L59.3792 58.0184C61.6189 57.143 63.3315 56.433 64.4956 55.8933C65.0703 55.6268 65.5575 55.3808 65.9191 55.1605C66.0928 55.0548 66.3002 54.9175 66.4844 54.7518C66.5757 54.6695 66.7104 54.537 66.8332 54.355C66.9451 54.1893 67.1486 53.8336 67.1486 53.3402H65.4581ZM58.7638 56.444L58.1559 54.8665C55.9596 55.7128 54.2124 56.3374 52.9027 56.7479C51.512 57.1838 50.8184 57.3095 50.6088 57.3095V59V60.6905C51.4136 60.6905 52.5862 60.3902 53.9139 59.9741C55.3225 59.5326 57.1456 58.8791 59.3716 58.0214L58.7638 56.444ZM50.6088 59V57.3095C50.6334 57.3095 50.4623 57.3169 50.0561 57.005C49.658 56.6993 49.1559 56.1787 48.557 55.3739L47.2008 56.3831L45.8446 57.3924C46.544 58.3321 47.259 59.12 47.997 59.6866C48.7267 60.2469 49.6105 60.6905 50.6088 60.6905V59ZM47.2008 56.3831L48.5721 55.3945C47.5487 53.975 47.0047 52.243 47.0047 50.1148H45.3142H43.6237C43.6237 52.8552 44.3374 55.3021 45.8295 57.3717L47.2008 56.3831ZM55.7209 53.4011V55.0916C56.9904 55.0916 58.1432 54.5531 59.1504 53.7474L58.0943 52.4274L57.0383 51.1073C56.4226 51.5999 55.993 51.7106 55.7209 51.7106V53.4011ZM58.0943 52.4274H59.7848V34.4743H58.0943H56.4038V52.4274H58.0943ZM58.0943 34.4743H59.7848C59.7848 32.8314 59.5113 31.2995 58.7103 30.1374C57.8311 28.8617 56.494 28.2804 54.9906 28.2804V29.9708V31.6613C55.5563 31.6613 55.7711 31.8306 55.9265 32.056C56.1601 32.3951 56.4038 33.115 56.4038 34.4743H58.0943ZM54.9906 29.9708V28.2804C53.724 28.2804 52.5741 28.7639 51.5696 29.5569L52.6171 30.8837L53.6646 32.2106C54.2019 31.7864 54.6343 31.6613 54.9906 31.6613V29.9708ZM52.6171 30.8837H50.9266V48.8976H52.6171H54.3076V30.8837H52.6171ZM52.6171 48.8976H50.9266C50.9266 50.5406 51.2002 52.0724 52.0011 53.2345C52.8804 54.5103 54.2175 55.0916 55.7209 55.0916V53.4011V51.7106C55.1551 51.7106 54.9404 51.5413 54.785 51.3159C54.5513 50.9769 54.3076 50.257 54.3076 48.8976H52.6171ZM71.706 43.3596L70.1783 44.0832V44.0832L71.706 43.3596ZM77.0006 27.1714L77.679 28.7199L77.6913 28.7144L77.0006 27.1714ZM85.3382 24.9805L83.912 25.8881L83.9319 25.9195L83.9533 25.95L85.3382 24.9805ZM86.0076 26.0151L84.5398 26.8538L84.5687 26.9044L84.601 26.9528L86.0076 26.0151ZM86.7379 27.354L85.2259 28.11L85.2549 28.168L85.2883 28.2237L86.7379 27.354ZM87.6508 28.8754L89.1372 28.0703L89.1195 28.0375L89.1003 28.0057L87.6508 28.8754ZM89.6591 30.336H91.3495V28.6455H89.6591V30.336ZM89.6591 31.5532L90.3366 33.1019L91.3495 32.6588V31.5532H89.6591ZM87.103 32.8312L86.3016 31.3427L86.2919 31.348L87.103 32.8312ZM80.8955 31.9792L79.2984 32.5333L79.3035 32.5477L79.3087 32.5621L80.8955 31.9792ZM82.7821 39.1604L83.4736 40.703V40.703L82.7821 39.1604ZM89.5982 39.9515L88.0633 40.6599L88.0744 40.6839L88.0862 40.7075L89.5982 39.9515ZM83.7559 56.8091L84.3884 58.3768L84.3954 58.374L83.7559 56.8091ZM74.9315 58.8783L73.3966 59.5867L73.4305 59.6602L73.4713 59.7301L74.9315 58.8783ZM73.836 56.5048L72.2792 57.1635L72.2897 57.1886L72.3011 57.2132L73.836 56.5048ZM72.4972 53.8271L71.0107 54.6322L71.0317 54.671L71.0547 54.7086L72.4972 53.8271ZM70.4889 52.3665H68.7984V54.057H70.4889V52.3665ZM70.4889 51.1493L69.8113 49.6006L68.7984 50.0437V51.1493H70.4889ZM73.1058 49.8713L73.8839 51.3721L73.9055 51.3609L73.9267 51.3491L73.1058 49.8713ZM79.4958 51.3319L77.9119 51.9226L77.9162 51.9343L77.9208 51.9459L79.4958 51.3319ZM82.9038 54.4357L84.027 55.6992V55.6992L82.9038 54.4357ZM78.0961 44.2116L77.42 42.6622V42.6622L78.0961 44.2116ZM74.3229 45.6721V43.9817C74.2887 43.9817 74.2032 43.9826 74.0274 43.8273C73.8231 43.6468 73.5427 43.288 73.2338 42.6359L71.706 43.3596L70.1783 44.0832C70.9839 45.784 72.2851 47.3626 74.3229 47.3626V45.6721ZM71.706 43.3596L73.2338 42.6359C72.6383 41.3788 72.3011 39.7549 72.3011 37.6998H70.6106H68.9201C68.9201 40.1076 69.3131 42.2568 70.1783 44.0832L71.706 43.3596ZM70.6106 37.6998H72.3011V31.1271H70.6106H68.9201V37.6998H70.6106ZM70.6106 31.1271H72.3011C72.3011 31.6612 71.9835 31.8594 72.1938 31.6531C72.331 31.5185 72.6104 31.2992 73.0979 30.9974C74.0605 30.4016 75.5715 29.6431 77.679 28.7198L77.0006 27.1714L76.3223 25.623C74.1698 26.566 72.4858 27.4 71.3183 28.1227C70.7408 28.4802 70.2214 28.8518 69.8261 29.2395C69.5039 29.5556 68.9201 30.2077 68.9201 31.1271H70.6106ZM77.0006 27.1714L77.6913 28.7144C79.8119 27.7652 81.4606 27.0635 82.6487 26.6019C83.2445 26.3705 83.7029 26.208 84.0355 26.1058C84.4325 25.9838 84.4855 26.0016 84.3644 26.0016V24.3111V22.6206C83.9188 22.6206 83.4215 22.7575 83.0426 22.8739C82.5993 23.0101 82.056 23.2051 81.4245 23.4504C80.1581 23.9423 78.4495 24.6708 76.31 25.6284L77.0006 27.1714ZM84.3644 24.3111V26.0016C84.2804 26.0016 84.1935 25.9882 84.1103 25.9613C84.0283 25.9348 83.9659 25.9003 83.924 25.8715C83.8467 25.8184 83.8524 25.7945 83.912 25.8881L85.3382 24.9805L86.7644 24.0729C86.3208 23.376 85.5414 22.6206 84.3644 22.6206V24.3111ZM85.3382 24.9805L83.9533 25.95C84.221 26.3325 84.4126 26.6311 84.5398 26.8538L86.0076 26.0151L87.4753 25.1764C87.278 24.8311 87.0233 24.44 86.7231 24.0111L85.3382 24.9805ZM86.0076 26.0151L84.601 26.9528C84.6983 27.0987 84.9002 27.4587 85.2259 28.11L86.7379 27.354L88.2499 26.598C87.9264 25.951 87.6414 25.4183 87.4142 25.0774L86.0076 26.0151ZM86.7379 27.354L85.2883 28.2237C85.6535 28.8323 85.9577 29.3394 86.2012 29.7452L87.6508 28.8754L89.1003 28.0057C88.8569 27.5999 88.5526 27.0928 88.1875 26.4842L86.7379 27.354ZM87.6508 28.8754L86.1643 29.6806C86.8641 30.9725 88.0057 32.0265 89.6591 32.0265V30.336V28.6455C89.6182 28.6455 89.5947 28.6415 89.5427 28.6037C89.4686 28.5498 89.3194 28.4067 89.1372 28.0703L87.6508 28.8754ZM89.6591 30.336H87.9686V31.5532H89.6591H91.3495V30.336H89.6591ZM89.6591 31.5532L88.9815 30.0044C88.2714 30.3151 87.3734 30.7656 86.3016 31.3427L87.103 32.8312L87.9045 34.3196C88.9424 33.7607 89.7485 33.3592 90.3366 33.1019L89.6591 31.5532ZM87.103 32.8312L86.2919 31.348C84.9981 32.0555 84.0172 32.5781 83.341 32.9211C83.0004 33.0938 82.7559 33.2115 82.5956 33.2825C82.5571 33.2995 82.5272 33.3122 82.5048 33.3214C82.4817 33.3308 82.4718 33.3343 82.4725 33.3341C82.4733 33.3338 82.4792 33.3317 82.4896 33.3285C82.4995 33.3254 82.5179 33.3199 82.5431 33.3135C82.5677 33.3074 82.7089 33.2707 82.9038 33.2707V34.9612V36.6517C83.2573 36.6517 83.5581 36.5364 83.5995 36.5217C83.7209 36.4788 83.847 36.426 83.9652 36.3737C84.2056 36.2671 84.5113 36.1185 84.8705 35.9363C85.5941 35.5693 86.6114 35.0268 87.9142 34.3144L87.103 32.8312ZM82.9038 34.9612V33.2707C83.2352 33.2707 83.4347 33.41 83.4739 33.4404C83.5058 33.4653 83.4581 33.4356 83.3475 33.2714C83.1252 32.9413 82.8306 32.3441 82.4824 31.3962L80.8955 31.9792L79.3087 32.5621C79.6908 33.6022 80.096 34.496 80.5432 35.16C80.9084 35.7023 81.671 36.6517 82.9038 36.6517V34.9612ZM80.8955 31.9792L82.4926 31.4251C82.133 30.3884 81.7531 29.4993 81.3352 28.8388C81.1266 28.5091 80.8631 28.1626 80.5264 27.883C80.1851 27.5995 79.6697 27.3066 79.0089 27.3066V28.9971V30.6876C78.6322 30.6876 78.4084 30.519 78.3663 30.484C78.3289 30.4529 78.3722 30.4791 78.478 30.6464C78.689 30.9799 78.9684 31.5819 79.2984 32.5333L80.8955 31.9792ZM79.0089 28.9971V27.3066C78.0711 27.3066 77.2366 27.7525 76.7378 28.5838C76.3215 29.2775 76.223 30.1004 76.223 30.8229H77.9135H79.604C79.604 30.598 79.6213 30.4473 79.6396 30.3556C79.6585 30.2615 79.671 30.2666 79.637 30.3233C79.5963 30.3911 79.5059 30.5027 79.3507 30.589C79.1977 30.674 79.0658 30.6876 79.0089 30.6876V28.9971ZM77.9135 30.8229H76.223V38.3084H77.9135H79.604V30.8229H77.9135ZM77.9135 38.3084H76.223C76.223 39.1939 76.3145 40.0918 76.6458 40.8278C76.8205 41.2161 77.0938 41.6307 77.5235 41.9489C77.9729 42.2818 78.4915 42.4332 79.0089 42.4332V40.7427V39.0522C79.1612 39.0522 79.3604 39.1021 79.5359 39.2321C79.6917 39.3475 79.7368 39.4578 79.729 39.4404C79.7202 39.4208 79.6846 39.3279 79.6538 39.1226C79.6238 38.9227 79.604 38.6549 79.604 38.3084H77.9135ZM79.0089 40.7427V42.4332C79.3167 42.4332 79.5861 42.3434 79.6104 42.3361C79.713 42.3051 79.8215 42.2668 79.9247 42.2285C80.1348 42.1504 80.4058 42.041 80.7277 41.9061C81.3758 41.6343 82.2934 41.232 83.4736 40.703L82.7821 39.1604L82.0906 37.6178C80.9177 38.1436 80.0298 38.5325 79.4202 38.7881C79.1132 38.9169 78.8923 39.0053 78.7475 39.0591C78.7125 39.072 78.6851 39.0819 78.6643 39.0891C78.654 39.0926 78.6461 39.0952 78.6404 39.0971C78.6346 39.099 78.6319 39.0998 78.632 39.0998C78.632 39.0998 78.6331 39.0994 78.6351 39.0989C78.637 39.0983 78.6402 39.0974 78.6444 39.0963C78.6522 39.0942 78.6674 39.0902 78.6885 39.0856C78.7038 39.0822 78.8326 39.0522 79.0089 39.0522V40.7427ZM82.7821 39.1604L83.4736 40.703C84.6363 40.1818 85.5411 39.8033 86.2006 39.5584C86.5314 39.4355 86.7785 39.3545 86.9527 39.3063C87.1627 39.2482 87.1599 39.2686 87.0422 39.2686V37.5781V35.8876C86.681 35.8876 86.3181 35.9739 86.0514 36.0476C85.7489 36.1313 85.4027 36.2481 85.0234 36.3889C84.2629 36.6714 83.2812 37.0841 82.0906 37.6178L82.7821 39.1604ZM87.0422 37.5781V39.2686C87.0493 39.2686 87.0567 39.2685 87.0775 39.2775C87.1029 39.2885 87.1655 39.3214 87.2612 39.4102C87.4659 39.6003 87.7488 39.9786 88.0633 40.6599L89.5982 39.9515L91.1331 39.2431C90.3544 37.5559 89.0852 35.8876 87.0422 35.8876V37.5781ZM89.5982 39.9515L88.0862 40.7075C88.7015 41.9382 89.064 43.6424 89.064 45.9156H90.7545H92.445C92.445 43.3202 92.0366 41.0483 91.1102 39.1955L89.5982 39.9515ZM90.7545 45.9156H89.064V52.7925H90.7545H92.445V45.9156H90.7545ZM90.7545 52.7925H89.064C89.064 52.4606 89.1872 52.2503 89.2206 52.1981C89.2563 52.1421 89.2628 52.1513 89.1832 52.2233C89.0223 52.3688 88.7044 52.5981 88.1634 52.9086C87.0956 53.5214 85.4286 54.2993 83.1163 55.2443L83.7559 56.8091L84.3954 58.374C86.7489 57.4121 88.5812 56.5671 89.8463 55.841C90.4717 55.4821 91.0286 55.1129 91.451 54.731C91.663 54.5393 91.8882 54.3025 92.0697 54.0184C92.2489 53.7379 92.445 53.3171 92.445 52.7925H90.7545ZM83.7559 56.8091L83.1233 55.2414C80.8195 56.1711 79.0265 56.8598 77.7338 57.3137C77.0859 57.5412 76.5835 57.7027 76.2158 57.8052C75.7881 57.9244 75.6973 57.9181 75.7835 57.9181V59.6086V61.2991C76.2145 61.2991 76.7145 61.1761 77.1237 61.062C77.5928 60.9312 78.1732 60.7428 78.854 60.5037C80.2187 60.0245 82.0671 59.3135 84.3884 58.3768L83.7559 56.8091ZM75.7835 59.6086V57.9181C76.1582 57.9181 76.3918 58.0861 76.4576 58.1425C76.5121 58.1891 76.4818 58.181 76.3917 58.0265L74.9315 58.8783L73.4713 59.7301C73.6651 60.0624 73.9189 60.4194 74.2573 60.7095C74.6072 61.0094 75.1248 61.2991 75.7835 61.2991V59.6086ZM74.9315 58.8783L76.4664 58.1699C76.223 57.6424 75.8578 56.8513 75.3709 55.7964L73.836 56.5048L72.3011 57.2132C72.788 58.2681 73.1532 59.0593 73.3966 59.5867L74.9315 58.8783ZM73.836 56.5048L75.3929 55.8461C74.9242 54.7383 74.4413 53.7664 73.9396 52.9456L72.4972 53.8271L71.0547 54.7086C71.4456 55.3483 71.8553 56.1617 72.2792 57.1635L73.836 56.5048ZM72.4972 53.8271L73.9836 53.0219C73.2838 51.73 72.1422 50.676 70.4889 50.676V52.3665V54.057C70.5297 54.057 70.5532 54.061 70.6052 54.0988C70.6793 54.1527 70.8285 54.2958 71.0107 54.6322L72.4972 53.8271ZM70.4889 52.3665H72.1794V51.1493H70.4889H68.7984V52.3665H70.4889ZM70.4889 51.1493L71.1665 52.6981C71.8656 52.3922 72.7758 51.9467 73.8839 51.3721L73.1058 49.8713L72.3276 48.3706C71.2449 48.932 70.4104 49.3385 69.8113 49.6006L70.4889 51.1493ZM73.1058 49.8713L73.9267 51.3491C75.2002 50.6416 76.1655 50.1195 76.831 49.7769C77.1664 49.6043 77.4065 49.4872 77.5634 49.4168C77.601 49.3999 77.6301 49.3874 77.6517 49.3785C77.674 49.3693 77.683 49.366 77.6814 49.3666C77.6802 49.367 77.6738 49.3693 77.663 49.3727C77.6525 49.376 77.6336 49.3817 77.6078 49.3882C77.5817 49.3949 77.4399 49.4318 77.2441 49.4318V47.7413V46.0508C76.8883 46.0508 76.5867 46.1674 76.5443 46.1826C76.4225 46.2261 76.2965 46.2795 76.1793 46.3321C75.9405 46.4392 75.6381 46.5884 75.2837 46.7707C74.5698 47.1382 73.5674 47.681 72.2848 48.3936L73.1058 49.8713ZM77.2441 47.7413V49.4318C77.0363 49.4318 76.8723 49.3796 76.7667 49.3305C76.6664 49.2839 76.6149 49.2388 76.6099 49.2344C76.6091 49.2337 76.6875 49.3079 76.8313 49.5371C77.1154 49.9902 77.479 50.7618 77.9119 51.9226L79.4958 51.3319L81.0798 50.7413C80.62 49.5083 80.162 48.4846 79.6956 47.7408C79.4641 47.3716 79.1849 46.9969 78.8444 46.697C78.5124 46.4047 77.968 46.0508 77.2441 46.0508V47.7413ZM79.4958 51.3319L77.9208 51.9459C78.4001 53.1755 78.8665 54.1896 79.3264 54.923C79.5541 55.2861 79.8253 55.6541 80.1511 55.9499C80.458 56.2284 81.0026 56.613 81.7476 56.613V54.9225V53.232C81.98 53.232 82.1588 53.2943 82.2669 53.3469C82.3699 53.3972 82.4213 53.4444 82.4235 53.4464C82.4276 53.4501 82.4061 53.4309 82.361 53.3735C82.3171 53.3176 82.2601 53.2372 82.1908 53.1267C81.9001 52.6633 81.5247 51.8821 81.0709 50.7179L79.4958 51.3319ZM81.7476 54.9225V56.613C82.6482 56.613 83.4187 56.2398 84.027 55.6992L82.9038 54.4357L81.7807 53.1722C81.7139 53.2316 81.6808 53.2445 81.6849 53.2428C81.6869 53.242 81.6951 53.2388 81.7083 53.2361C81.7218 53.2333 81.7354 53.232 81.7476 53.232V54.9225ZM82.9038 54.4357L84.027 55.6992C84.813 55.0005 85.1421 54.0611 85.1421 53.0968H83.4516H81.7611C81.7611 53.1997 81.7448 53.2302 81.75 53.2174C81.7524 53.2116 81.7574 53.2015 81.7654 53.1903C81.7733 53.1791 81.7798 53.1731 81.7807 53.1722L82.9038 54.4357ZM83.4516 53.0968H85.1421V45.4896H83.4516H81.7611V53.0968H83.4516ZM83.4516 45.4896H85.1421C85.1421 44.4756 85.0108 43.446 84.549 42.6147C84.3038 42.1734 83.9518 41.7643 83.4655 41.4726C82.9767 41.1793 82.4453 41.0605 81.9301 41.0605V42.751V44.4415C81.9221 44.4415 81.8344 44.4368 81.726 44.3717C81.6201 44.3082 81.585 44.2414 81.5935 44.2566C81.6073 44.2816 81.6538 44.3807 81.6942 44.5993C81.7341 44.8144 81.7611 45.1065 81.7611 45.4896H83.4516ZM81.9301 42.751V41.0605C81.5663 41.0605 81.2021 41.1684 81.0165 41.2248C80.7632 41.3017 80.4626 41.4083 80.1264 41.5364C79.4503 41.7939 78.5445 42.1714 77.42 42.6622L78.0961 44.2116L78.7722 45.761C79.8791 45.278 80.7281 44.9252 81.33 44.6959C81.6327 44.5805 81.852 44.5045 81.9993 44.4598C82.2144 44.3944 82.1317 44.4415 81.9301 44.4415V42.751ZM78.0961 44.2116L77.42 42.6622C76.3117 43.1458 75.4648 43.4999 74.8689 43.7305C74.569 43.8466 74.3531 43.9235 74.2094 43.9688C73.9824 44.0405 74.0933 43.9817 74.3229 43.9817V45.6721V47.3626C74.6946 47.3626 75.0691 47.2429 75.2275 47.1929C75.4693 47.1165 75.7605 47.0108 76.0895 46.8835C76.7514 46.6273 77.649 46.2511 78.7722 45.761L78.0961 44.2116ZM115.784 52.7317L114.464 53.7877L114.482 53.8101L114.5 53.8318L115.784 52.7317ZM118.035 53.9488H119.726V52.616L118.43 52.305L118.035 53.9488ZM118.035 55.2877L118.861 56.7629L119.726 56.2788V55.2877H118.035ZM111.402 59L110.762 60.5646L111.516 60.8732L112.227 60.4752L111.402 59ZM108.907 57.2351L107.653 58.3693L107.667 58.3845L107.681 58.3995L108.907 57.2351ZM107.75 54.9225H109.441V52.0984L106.952 53.4326L107.75 54.9225ZM100.143 59L99.2055 60.4066L100.049 60.9687L100.942 60.49L100.143 59ZM99.5955 58.6957L98.6578 60.1023L98.7454 60.1607L98.8395 60.2077L99.5955 58.6957ZM98.3175 57.7828L97.2173 59.0664L97.2661 59.1081L97.3178 59.1461L98.3175 57.7828ZM96.7961 56.2614L98.0866 55.1694L98.0671 55.1465L98.0469 55.1243L96.7961 56.2614ZM104.464 36.7261L104.961 38.3418L104.971 38.3388L104.98 38.3358L104.464 36.7261ZM107.69 35.6915L108.206 37.3012L109.38 36.9246V35.6915H107.69ZM105.864 30.8837L104.835 32.2253L104.85 32.2363L104.864 32.2469L105.864 30.8837ZM98.8044 29.484H97.1139V31.1745H98.8044V29.484ZM98.8044 27.6583L98.239 26.0651L97.1139 26.4643V27.6583H98.8044ZM113.228 26.928L111.841 27.8952V27.8952L113.228 26.928ZM103.186 52.1231L101.919 53.2415L101.953 53.2811L101.991 53.3184L103.186 52.1231ZM107.75 52.1839L108.733 53.5595L109.441 53.0539V52.1839H107.75ZM107.75 38.4301H109.441V36.0248L107.178 36.8395L107.75 38.4301ZM105.438 39.3429L104.729 37.808L104.705 37.8191L104.682 37.8309L105.438 39.3429ZM103.856 40.4992L105.002 41.7414L105.006 41.738L103.856 40.4992ZM115.053 32.3443H113.363V49.567H115.053H116.744V32.3443H115.053ZM115.053 49.567H113.363C113.363 51.1469 113.598 52.706 114.464 53.7877L115.784 52.7317L117.104 51.6756C116.995 51.5401 116.744 50.9895 116.744 49.567H115.053ZM115.784 52.7317L114.5 53.8318C115.294 54.7581 116.413 55.298 117.641 55.5926L118.035 53.9488L118.43 52.305C117.629 52.1128 117.247 51.8412 117.067 51.6315L115.784 52.7317ZM118.035 53.9488H116.345V55.2877H118.035H119.726V53.9488H118.035ZM118.035 55.2877L117.21 53.8125L110.576 57.5248L111.402 59L112.227 60.4752L118.861 56.7629L118.035 55.2877ZM111.402 59L112.042 57.4354C111.403 57.1741 110.765 56.7365 110.132 56.0708L108.907 57.2351L107.681 58.3995C108.59 59.3566 109.615 60.0956 110.762 60.5646L111.402 59ZM108.907 57.2351L110.16 56.101C109.496 55.3668 109.441 54.9906 109.441 54.9225H107.75H106.06C106.06 56.2339 106.776 57.3994 107.653 58.3693L108.907 57.2351ZM107.75 54.9225L106.952 53.4326L99.3446 57.51L100.143 59L100.942 60.49L108.549 56.4125L107.75 54.9225ZM100.143 59L101.081 57.5934C100.871 57.4535 100.614 57.315 100.352 57.1837L99.5955 58.6957L98.8395 60.2077C99.0638 60.3199 99.172 60.3842 99.2055 60.4066L100.143 59ZM99.5955 58.6957L100.533 57.2891C100.325 57.1505 99.9274 56.8671 99.3172 56.4196L98.3175 57.7828L97.3178 59.1461C97.9248 59.5912 98.379 59.9164 98.6578 60.1023L99.5955 58.6957ZM98.3175 57.7828L99.4177 56.4993C98.9125 56.0664 98.47 55.6227 98.0866 55.1694L96.7961 56.2614L95.5056 57.3534C96.0146 57.955 96.5865 58.5256 97.2173 59.0664L98.3175 57.7828ZM96.7961 56.2614L98.0469 55.1243C97.0935 54.0755 96.6608 52.9529 96.6608 51.6971H94.9703H93.2798C93.2798 53.8492 94.0643 55.7696 95.5452 57.3985L96.7961 56.2614ZM94.9703 51.6971H96.6608V41.7164H94.9703H93.2798V51.6971H94.9703ZM94.9703 41.7164H96.6608C96.6608 41.8676 96.6296 41.9869 96.6003 42.0643C96.572 42.1387 96.545 42.1761 96.545 42.1761C96.5446 42.1766 96.5612 42.1536 96.6069 42.1083C96.6518 42.0636 96.7171 42.005 96.8082 41.9332C97.1924 41.6302 97.8549 41.2316 98.8674 40.7448L98.1349 39.2212L97.4025 37.6977C96.3052 38.2252 95.3854 38.7495 94.7148 39.2783C94.3792 39.5429 94.0491 39.8526 93.7912 40.2145C93.5346 40.5748 93.2798 41.087 93.2798 41.7164H94.9703ZM98.1349 39.2212L98.8674 40.7448C100.906 39.7649 102.937 38.9647 104.961 38.3418L104.464 36.7261L103.967 35.1103C101.772 35.7857 99.5837 36.649 97.4025 37.6977L98.1349 39.2212ZM104.464 36.7261L104.98 38.3358L108.206 37.3012L107.69 35.6915L107.173 34.0818L103.948 35.1163L104.464 36.7261ZM107.69 35.6915H109.38C109.38 33.136 108.708 30.8732 106.864 29.5205L105.864 30.8837L104.864 32.2469C105.454 32.6794 105.999 33.6217 105.999 35.6915H107.69ZM105.864 30.8837L106.892 29.5421C105.994 28.8535 104.817 28.4338 103.515 28.1757C102.193 27.9137 100.614 27.7935 98.8044 27.7935V29.484V31.1745C100.484 31.1745 101.826 31.2876 102.857 31.4921C103.909 31.7006 104.516 31.9808 104.835 32.2253L105.864 30.8837ZM98.8044 29.484H100.495V27.6583H98.8044H97.1139V29.484H98.8044ZM98.8044 27.6583L99.3697 29.2514C102.508 28.138 104.941 27.3088 106.678 26.7598C107.548 26.4847 108.226 26.2854 108.723 26.1566C109.29 26.0093 109.45 26.0016 109.394 26.0016V24.3111V22.6206C108.951 22.6206 108.381 22.7523 107.874 22.884C107.295 23.0341 106.553 23.2532 105.659 23.536C103.866 24.1027 101.39 24.9471 98.239 26.0651L98.8044 27.6583ZM109.394 24.3111V26.0016C109.914 26.0016 110.749 26.3303 111.841 27.8952L113.228 26.928L114.614 25.9607C113.272 24.0364 111.551 22.6206 109.394 22.6206V24.3111ZM113.228 26.928L111.841 27.8952C112.889 29.3972 113.363 30.8709 113.363 32.3443H115.053H116.744C116.744 30.0851 116.001 27.9479 114.614 25.9607L113.228 26.928ZM102.273 49.5062H100.583C100.583 50.9085 100.998 52.1979 101.919 53.2415L103.186 52.1231L104.454 51.0046C104.157 50.6688 103.964 50.2136 103.964 49.5062H102.273ZM103.186 52.1231L101.991 53.3184C102.892 54.2197 104.013 54.7873 105.316 54.7873V53.0968V51.4063C105.078 51.4063 104.779 51.3248 104.381 50.9277L103.186 52.1231ZM105.316 53.0968V54.7873C106.546 54.7873 107.695 54.3009 108.733 53.5595L107.75 52.1839L106.768 50.8083C106.102 51.2841 105.628 51.4063 105.316 51.4063V53.0968ZM107.75 52.1839H109.441V38.4301H107.75H106.06V52.1839H107.75ZM107.75 38.4301L107.178 36.8395C106.149 37.2098 105.324 37.5336 104.729 37.808L105.438 39.3429L106.146 40.8778C106.607 40.6654 107.323 40.3806 108.323 40.0206L107.75 38.4301ZM105.438 39.3429L104.682 37.8309C104.005 38.1695 103.346 38.6659 102.705 39.2605L103.856 40.4992L105.006 41.738C105.502 41.2777 105.897 41.0032 106.194 40.855L105.438 39.3429ZM103.856 40.4992L102.709 39.2571C101.135 40.7099 100.583 42.9863 100.583 45.5504H102.273H103.964C103.964 43.3271 104.466 42.236 105.002 41.7414L103.856 40.4992ZM102.273 45.5504H100.583V49.5062H102.273H103.964V45.5504H102.273ZM130.947 54.1922H132.637V52.7997L131.271 52.533L130.947 54.1922ZM130.947 55.5311L131.778 57.0033L132.637 56.5182V55.5311H130.947ZM124.8 59L124.16 60.5646L124.918 60.8747L125.631 60.4722L124.8 59ZM122.305 57.2351L121.051 58.3693L121.065 58.3845L121.079 58.3995L122.305 57.2351ZM118.654 29.1188H116.963V30.5114L118.33 30.778L118.654 29.1188ZM118.654 27.78L117.823 26.3077L116.963 26.7929V27.78H118.654ZM124.8 24.3111L125.44 22.7464L124.682 22.4364L123.969 22.8389L124.8 24.3111ZM127.295 26.1368L126.042 27.271L126.056 27.2862L126.07 27.3011L127.295 26.1368ZM122.731 11.8961L123.312 13.4837L123.322 13.4798L123.333 13.4758L122.731 11.8961ZM126.808 11.957L125.427 12.9318L125.446 12.9582L125.466 12.9838L126.808 11.957ZM125.165 19.6859L125.759 21.2687L125.776 21.2623L125.793 21.2555L125.165 19.6859ZM120.905 19.5642L119.463 20.4457L119.492 20.4934L119.524 20.5391L120.905 19.5642ZM128.452 28.4494H126.761V49.9931H128.452H130.142V28.4494H128.452ZM128.452 49.9931H126.761C126.761 51.3885 126.99 52.6994 127.622 53.7626C128.295 54.8953 129.341 55.6012 130.623 55.8514L130.947 54.1922L131.271 52.533C130.889 52.4587 130.687 52.3025 130.529 52.0355C130.329 51.6989 130.142 51.0725 130.142 49.9931H128.452ZM130.947 54.1922H129.256V55.5311H130.947H132.637V54.1922H130.947ZM130.947 55.5311L130.116 54.0589L123.969 57.5278L124.8 59L125.631 60.4722L131.778 57.0033L130.947 55.5311ZM124.8 59L125.44 57.4354C124.802 57.1741 124.163 56.7365 123.531 56.0708L122.305 57.2351L121.079 58.3995C121.989 59.3566 123.013 60.0956 124.16 60.5646L124.8 59ZM122.305 57.2351L123.559 56.101C122.915 55.3896 122.839 54.9892 122.839 54.8617H121.149H119.458C119.458 56.1947 120.153 57.3767 121.051 58.3693L122.305 57.2351ZM121.149 54.8617H122.839V33.318H121.149H119.458V54.8617H121.149ZM121.149 33.318H122.839C122.839 31.9226 122.61 30.6117 121.978 29.5485C121.305 28.4158 120.26 27.7099 118.977 27.4596L118.654 29.1188L118.33 30.778C118.711 30.8524 118.913 31.0086 119.072 31.2756C119.272 31.6122 119.458 32.2386 119.458 33.318H121.149ZM118.654 29.1188H120.344V27.78H118.654H116.963V29.1188H118.654ZM118.654 27.78L119.484 29.2522L125.631 25.7833L124.8 24.3111L123.969 22.8389L117.823 26.3077L118.654 27.78ZM124.8 24.3111L124.16 25.8757C124.778 26.1285 125.408 26.571 126.042 27.271L127.295 26.1368L128.549 25.0026C127.64 23.9986 126.608 23.224 125.44 22.7464L124.8 24.3111ZM127.295 26.1368L126.07 27.3011C126.697 27.9611 126.761 28.3342 126.761 28.4494H128.452H130.142C130.142 27.104 129.436 25.9354 128.521 24.9725L127.295 26.1368ZM120.236 16.7039H121.926V12.9915H120.236H118.545V16.7039H120.236ZM120.236 12.9915H121.926C121.926 13.4578 121.734 13.7835 121.641 13.9196C121.539 14.0696 121.436 14.1645 121.39 14.2048C121.337 14.2514 121.295 14.281 121.277 14.2934C121.266 14.3007 121.258 14.3058 121.253 14.3088C121.249 14.3119 121.246 14.3135 121.246 14.3135C121.246 14.3136 121.247 14.3126 121.251 14.3105C121.255 14.3084 121.26 14.3055 121.267 14.3017C121.282 14.2941 121.302 14.2839 121.328 14.2713C121.38 14.2456 121.45 14.2134 121.539 14.1743C121.905 14.0137 122.488 13.7849 123.312 13.4837L122.731 11.8961L122.15 10.3085C121.31 10.6159 120.646 10.874 120.18 11.0785C119.955 11.1774 119.727 11.2846 119.538 11.3957C119.45 11.4469 119.304 11.5368 119.159 11.6642C119.088 11.7273 118.965 11.8431 118.85 12.0121C118.744 12.1673 118.545 12.51 118.545 12.9915H120.236ZM122.731 11.8961L123.333 13.4758C124.177 13.1543 124.82 12.9207 125.274 12.7695C125.502 12.6935 125.663 12.6446 125.768 12.6166C125.934 12.5726 125.841 12.6129 125.652 12.6129V10.9224V9.23188C125.342 9.23188 125.036 9.31276 124.897 9.34982C124.698 9.40301 124.463 9.47587 124.205 9.56206C123.684 9.7355 122.989 9.98871 122.129 10.3163L122.731 11.8961ZM125.652 10.9224V12.6129C125.381 12.6129 125.191 12.5315 125.11 12.4898C125.029 12.448 125.001 12.4174 125.027 12.4408C125.05 12.4611 125.097 12.5079 125.17 12.594C125.241 12.6786 125.327 12.7897 125.427 12.9318L126.808 11.957L128.19 10.9821C127.912 10.5896 127.61 10.215 127.281 9.92119C127.006 9.67504 126.438 9.23188 125.652 9.23188V10.9224ZM126.808 11.957L125.466 12.9838C125.812 13.4363 125.909 13.7944 125.909 14.087H127.6H129.29C129.29 12.919 128.86 11.857 128.151 10.9301L126.808 11.957ZM127.6 14.087H125.909V18.5296H127.6H129.29V14.087H127.6ZM127.6 18.5296H125.909C125.909 18.0781 126.09 17.7609 126.176 17.6285C126.273 17.4816 126.37 17.3872 126.414 17.3466C126.464 17.2998 126.504 17.2699 126.522 17.2572C126.532 17.2498 126.54 17.2446 126.544 17.2415C126.549 17.2384 126.551 17.2368 126.551 17.2368C126.552 17.2367 126.55 17.2378 126.546 17.24C126.543 17.2421 126.537 17.2452 126.53 17.2491C126.516 17.2571 126.497 17.2677 126.471 17.281C126.42 17.3079 126.353 17.3417 126.266 17.383C125.909 17.5523 125.341 17.7951 124.537 18.1163L125.165 19.6859L125.793 21.2555C126.613 20.9275 127.261 20.6531 127.716 20.4369C127.937 20.3324 128.158 20.2195 128.343 20.1039C128.429 20.0503 128.57 19.9576 128.709 19.8286C128.779 19.7645 128.895 19.6488 129.004 19.4825C129.103 19.3308 129.29 18.9963 129.29 18.5296H127.6ZM125.165 19.6859L124.572 18.103C123.774 18.402 123.157 18.6166 122.708 18.7541C122.483 18.823 122.318 18.8668 122.206 18.892C122.069 18.9227 122.084 18.9083 122.183 18.9083V20.5988V22.2892C122.658 22.2892 123.234 22.129 123.697 21.987C124.242 21.8202 124.933 21.5784 125.759 21.2687L125.165 19.6859ZM122.183 20.5988V18.9083C122.363 18.9083 122.497 18.9513 122.573 18.9844C122.646 19.0159 122.672 19.0412 122.654 19.0262C122.636 19.0122 122.593 18.9741 122.527 18.8983C122.461 18.8236 122.38 18.7224 122.286 18.5893L120.905 19.5642L119.524 20.5391C119.814 20.9504 120.146 21.346 120.526 21.654C120.896 21.953 121.461 22.2892 122.183 22.2892V20.5988ZM120.905 19.5642L122.348 18.6827C122.114 18.2994 121.926 17.6814 121.926 16.7039H120.236H118.545C118.545 18.0795 118.804 19.3683 119.463 20.4457L120.905 19.5642ZM141.824 30.8229L140.504 29.7668L140.133 30.2299V30.8229H141.824ZM145.84 53.4011L145.395 55.032L145.424 55.0398L145.453 55.0466L145.84 53.4011ZM150.77 53.8879H152.46V52.1975H150.77V53.8879ZM150.77 55.6528L151.307 57.2556L152.46 56.8689V55.6528H150.77ZM136.407 56.444L135.036 57.4326L135.042 57.4403L135.047 57.4479L136.407 56.444ZM141.459 26.928L142.043 28.5142L142.051 28.5114L141.459 26.928ZM150.344 26.076L148.714 26.5255V26.5255L150.344 26.076ZM151.439 30.336L149.797 30.7366L149.801 30.7554L149.806 30.7741L151.439 30.336ZM152.778 34.0483L151.297 34.863L151.321 34.9078L151.349 34.951L152.778 34.0483ZM155.456 35.2046H157.146V33.5141H155.456V35.2046ZM155.456 36.4218L156.155 37.9607L157.146 37.5103V36.4218H155.456ZM150.891 38.6127L151.624 40.1363L151.636 40.1304L150.891 38.6127ZM145.171 35.2046L143.543 35.6612L143.545 35.6664L145.171 35.2046ZM142.919 30.2143V28.5238C141.861 28.5238 141.051 29.0825 140.504 29.7668L141.824 30.8229L143.144 31.8789C143.201 31.8073 143.212 31.8163 143.162 31.8442C143.136 31.8586 143.099 31.875 143.053 31.8871C143.006 31.8994 142.96 31.9048 142.919 31.9048V30.2143ZM141.824 30.8229H140.133V47.6196H141.824H143.514V30.8229H141.824ZM141.824 47.6196H140.133C140.133 49.4139 140.518 51.0456 141.439 52.3725C142.375 53.7196 143.747 54.5824 145.395 55.032L145.84 53.4011L146.285 51.7702C145.256 51.4895 144.619 51.0236 144.216 50.4435C143.799 49.8432 143.514 48.9493 143.514 47.6196H141.824ZM145.84 53.4011L145.453 55.0466C146.994 55.4093 148.774 55.5784 150.77 55.5784V53.8879V52.1975C148.952 52.1975 147.445 52.042 146.227 51.7555L145.84 53.4011ZM150.77 53.8879H149.079V55.6528H150.77H152.46V53.8879H150.77ZM150.77 55.6528L150.232 54.0501C146.908 55.1648 144.369 55.9975 142.61 56.5505C141.729 56.8275 141.055 57.0304 140.582 57.1626C140.344 57.2291 140.171 57.2733 140.056 57.2996C139.881 57.3396 139.956 57.3095 140.12 57.3095V59V60.6905C140.394 60.6905 140.679 60.6255 140.809 60.5958C140.999 60.5524 141.23 60.492 141.491 60.419C142.016 60.2723 142.73 60.0568 143.624 59.7759C145.414 59.2132 147.977 58.3723 151.307 57.2556L150.77 55.6528ZM140.12 59V57.3095C139.734 57.3095 138.936 57.0236 137.767 55.4401L136.407 56.444L135.047 57.4479C136.394 59.2724 138.071 60.6905 140.12 60.6905V59ZM136.407 56.444L137.779 55.4554C136.744 54.0207 136.211 52.3442 136.211 50.3582H134.521H132.83C132.83 52.9974 133.555 55.378 135.036 57.4326L136.407 56.444ZM134.521 50.3582H136.211V29.91H134.521H132.83V50.3582H134.521ZM134.521 29.91H136.211C136.211 30.4442 135.956 30.7905 135.884 30.8844C135.787 31.0091 135.7 31.0782 135.684 31.0914C135.645 31.122 135.657 31.1071 135.772 31.0435C135.987 30.9249 136.359 30.747 136.923 30.5046C138.037 30.0258 139.737 29.3637 142.043 28.5142L141.459 26.928L140.874 25.3417C138.555 26.1963 136.786 26.8832 135.588 27.3984C134.995 27.653 134.5 27.8833 134.137 28.0843C133.963 28.1804 133.757 28.303 133.575 28.449C133.486 28.52 133.345 28.6412 133.212 28.8124C133.103 28.9529 132.83 29.3403 132.83 29.91H134.521ZM141.459 26.928L142.051 28.5114C144.375 27.6422 146.185 26.9977 147.49 26.5727C148.144 26.3596 148.652 26.2078 149.026 26.1111C149.455 25.9999 149.56 26.0016 149.492 26.0016V24.3111V22.6206C149.078 22.6206 148.59 22.7313 148.178 22.8382C147.709 22.9595 147.127 23.1348 146.443 23.3579C145.07 23.8052 143.208 24.4691 140.866 25.3445L141.459 26.928ZM149.492 24.3111V26.0016C149.169 26.0016 148.91 25.9015 148.737 25.801C148.572 25.7055 148.47 25.6024 148.423 25.5499C148.337 25.4535 148.324 25.4029 148.365 25.4872C148.44 25.6423 148.56 25.9665 148.714 26.5255L150.344 26.076L151.973 25.6264C151.803 25.0088 151.619 24.4506 151.41 24.0174C151.308 23.8076 151.159 23.5364 150.941 23.2929C150.748 23.0785 150.262 22.6206 149.492 22.6206V24.3111ZM150.344 26.076L148.714 26.5255C149.033 27.6808 149.394 29.0836 149.797 30.7366L151.439 30.336L153.082 29.9354C152.673 28.2615 152.304 26.8242 151.973 25.6264L150.344 26.076ZM151.439 30.336L149.806 30.7741C150.263 32.477 150.751 33.8711 151.297 34.863L152.778 34.0483L154.259 33.2336C153.912 32.6026 153.508 31.5219 153.072 29.8979L151.439 30.336ZM152.778 34.0483L151.349 34.951C152.266 36.4029 153.846 36.8951 155.456 36.8951V35.2046V33.5141C154.469 33.5141 154.264 33.2355 154.207 33.1456L152.778 34.0483ZM155.456 35.2046H153.765V36.4218H155.456H157.146V35.2046H155.456ZM155.456 36.4218L154.756 34.8828C153.839 35.2999 152.297 36.0402 150.147 37.0949L150.891 38.6127L151.636 40.1304C153.787 39.0754 155.288 38.355 156.155 37.9607L155.456 36.4218ZM150.891 38.6127L150.159 37.0891C149.108 37.5942 148.314 37.9664 147.768 38.2101C147.493 38.333 147.298 38.4154 147.173 38.4644C147.108 38.4896 147.083 38.4976 147.086 38.4968C147.087 38.4964 147.113 38.488 147.157 38.4783C147.181 38.4729 147.309 38.4436 147.483 38.4436V40.1341V41.8246C147.795 41.8246 148.062 41.734 148.094 41.7239C148.198 41.6914 148.305 41.6518 148.403 41.6136C148.602 41.5358 148.854 41.4281 149.146 41.2974C149.736 41.034 150.565 40.6454 151.624 40.1362L150.891 38.6127ZM147.483 40.1341V38.4436C148.105 38.4436 148.375 38.8384 148.291 38.7391C148.256 38.6968 148.146 38.5398 147.979 38.1837C147.653 37.4879 147.256 36.3605 146.797 34.7429L145.171 35.2046L143.545 35.6664C144.018 37.3351 144.474 38.6724 144.918 39.6197C145.137 40.0853 145.392 40.5444 145.702 40.9129C145.963 41.2244 146.558 41.8246 147.483 41.8246V40.1341ZM145.171 35.2046L146.799 34.7481C146.325 33.0614 145.877 31.7161 145.449 30.7666C145.239 30.3008 144.995 29.8435 144.704 29.4761C144.478 29.1905 143.885 28.5238 142.919 28.5238V30.2143V31.9048C142.237 31.9048 141.951 31.446 142.055 31.5763C142.093 31.6247 142.202 31.7913 142.367 32.1571C142.689 32.8711 143.083 34.0209 143.543 35.6612L145.171 35.2046Z" fill="black" mask="url(#path-1-outside-1_312_1037)"/>
<mask id="path-3-outside-2_312_1037" maskUnits="userSpaceOnUse" x="158.559" y="10" width="91" height="51" fill="black">
<rect fill="white" x="158.559" y="10" width="91" height="51"/>
<path d="M170.904 16.3996C175.489 13.6813 177.944 12.3221 178.268 12.3221C178.633 12.3221 179.222 12.6467 180.033 13.2958C180.845 13.9044 181.656 14.7767 182.467 15.9127C183.279 17.0081 183.685 18.0833 183.685 19.1382V29.3623C183.685 30.2954 182.021 31.472 178.694 32.892C179.546 33.1355 180.601 34.0483 181.859 35.6306C183.117 37.1724 183.745 38.5721 183.745 39.8298V53.3402C183.745 53.6648 181.514 54.6994 177.051 56.444C172.629 58.148 169.91 59 168.896 59C167.922 59 166.786 58.1277 165.488 56.3831C164.23 54.6385 163.601 52.5491 163.601 50.1148V20.903C163.601 18.7122 162.77 17.4342 161.106 17.069V15.7301L167.253 12.2612C168.146 12.6264 168.977 13.235 169.748 14.087C170.519 14.8984 170.904 15.6693 170.904 16.3996ZM174.008 53.4011C174.779 53.4011 175.57 53.0765 176.382 52.4274V42.9944C176.382 39.9921 175.347 38.4909 173.278 38.4909C172.466 38.4909 171.675 38.7952 170.904 39.4038V48.8976C170.904 51.8999 171.939 53.4011 174.008 53.4011ZM176.382 22.4853C176.382 21.3899 176.138 20.4568 175.651 19.6859C175.205 18.8745 174.536 18.4687 173.643 18.4687C172.791 18.4687 171.878 19.0773 170.904 20.2945V32.892C174.556 31.8777 176.382 29.6868 176.382 26.3194V22.4853ZM204.127 24.3111C204.329 24.3111 204.837 24.6357 205.648 25.2848C206.459 25.8934 207.271 26.7657 208.082 27.9017C208.894 28.9971 209.299 30.0723 209.299 31.1271V41.3513C209.299 42.0815 208.224 42.9741 206.074 44.029C203.924 45.0839 201.834 45.9562 199.806 46.6459C197.818 47.295 196.742 47.6196 196.58 47.6196C196.58 50.7436 197.939 52.6708 200.658 53.4011C201.997 53.7257 203.599 53.8879 205.465 53.8879V55.6528C198.812 57.8843 195.262 59 194.815 59C193.598 59 192.361 58.148 191.103 56.444C189.845 54.6994 189.216 52.6708 189.216 50.3582V29.91C189.216 29.626 191.529 28.632 196.154 26.928C200.779 25.1834 203.437 24.3111 204.127 24.3111ZM201.997 33.9875C201.997 32.8515 201.733 31.898 201.205 31.1271C200.678 30.3157 200.009 29.91 199.197 29.91C198.386 29.91 197.493 30.2143 196.519 30.8229V44.881C200.171 43.8667 201.997 41.6758 201.997 38.3084V33.9875ZM230.904 32.3443V49.567C230.904 51.0682 231.147 52.1231 231.634 52.7317C232.121 53.2997 232.872 53.7054 233.886 53.9488V55.2877L227.253 59C226.36 58.6349 225.528 58.0466 224.757 57.2351C223.986 56.3831 223.601 55.6123 223.601 54.9225L215.994 59C215.872 58.9189 215.69 58.8174 215.446 58.6957C215.203 58.5334 214.777 58.2291 214.168 57.7828C213.6 57.296 213.093 56.7888 212.647 56.2614C211.429 54.9225 210.821 53.4011 210.821 51.6971V41.7164C210.821 41.0672 211.876 40.2355 213.986 39.2212C216.095 38.2069 218.205 37.3752 220.315 36.7261L223.54 35.6915C223.54 33.3789 222.932 31.7763 221.714 30.8837C220.497 29.9506 218.144 29.484 214.655 29.484V27.6583C220.944 25.4268 224.473 24.3111 225.244 24.3111C226.583 24.3111 227.861 25.1834 229.078 26.928C230.295 28.6726 230.904 30.478 230.904 32.3443ZM218.124 49.5062C218.124 50.5611 218.428 51.4334 219.037 52.1231C219.686 52.7722 220.396 53.0968 221.167 53.0968C221.938 53.0968 222.749 52.7925 223.601 52.1839V38.4301C222.587 38.7952 221.816 39.0995 221.288 39.3429C220.802 39.5864 220.274 39.9718 219.706 40.4992C218.651 41.473 218.124 43.1567 218.124 45.5504V49.5062ZM244.302 17.9819V25.2239H247.406L246.797 28.206H244.302V49.9931C244.302 52.4679 245.134 53.8677 246.797 54.1922V55.5311L240.651 59C239.758 58.6349 238.926 58.0466 238.156 57.2351C237.385 56.3831 236.999 55.592 236.999 54.8617V28.2668H234.504L235.113 25.7108C236.33 25.7108 237.79 24.8994 239.494 23.2765C241.239 21.6131 242.274 19.8482 242.598 17.9819H244.302Z"/>
</mask>
<path d="M170.904 16.3996C175.489 13.6813 177.944 12.3221 178.268 12.3221C178.633 12.3221 179.222 12.6467 180.033 13.2958C180.845 13.9044 181.656 14.7767 182.467 15.9127C183.279 17.0081 183.685 18.0833 183.685 19.1382V29.3623C183.685 30.2954 182.021 31.472 178.694 32.892C179.546 33.1355 180.601 34.0483 181.859 35.6306C183.117 37.1724 183.745 38.5721 183.745 39.8298V53.3402C183.745 53.6648 181.514 54.6994 177.051 56.444C172.629 58.148 169.91 59 168.896 59C167.922 59 166.786 58.1277 165.488 56.3831C164.23 54.6385 163.601 52.5491 163.601 50.1148V20.903C163.601 18.7122 162.77 17.4342 161.106 17.069V15.7301L167.253 12.2612C168.146 12.6264 168.977 13.235 169.748 14.087C170.519 14.8984 170.904 15.6693 170.904 16.3996ZM174.008 53.4011C174.779 53.4011 175.57 53.0765 176.382 52.4274V42.9944C176.382 39.9921 175.347 38.4909 173.278 38.4909C172.466 38.4909 171.675 38.7952 170.904 39.4038V48.8976C170.904 51.8999 171.939 53.4011 174.008 53.4011ZM176.382 22.4853C176.382 21.3899 176.138 20.4568 175.651 19.6859C175.205 18.8745 174.536 18.4687 173.643 18.4687C172.791 18.4687 171.878 19.0773 170.904 20.2945V32.892C174.556 31.8777 176.382 29.6868 176.382 26.3194V22.4853ZM204.127 24.3111C204.329 24.3111 204.837 24.6357 205.648 25.2848C206.459 25.8934 207.271 26.7657 208.082 27.9017C208.894 28.9971 209.299 30.0723 209.299 31.1271V41.3513C209.299 42.0815 208.224 42.9741 206.074 44.029C203.924 45.0839 201.834 45.9562 199.806 46.6459C197.818 47.295 196.742 47.6196 196.58 47.6196C196.58 50.7436 197.939 52.6708 200.658 53.4011C201.997 53.7257 203.599 53.8879 205.465 53.8879V55.6528C198.812 57.8843 195.262 59 194.815 59C193.598 59 192.361 58.148 191.103 56.444C189.845 54.6994 189.216 52.6708 189.216 50.3582V29.91C189.216 29.626 191.529 28.632 196.154 26.928C200.779 25.1834 203.437 24.3111 204.127 24.3111ZM201.997 33.9875C201.997 32.8515 201.733 31.898 201.205 31.1271C200.678 30.3157 200.009 29.91 199.197 29.91C198.386 29.91 197.493 30.2143 196.519 30.8229V44.881C200.171 43.8667 201.997 41.6758 201.997 38.3084V33.9875ZM230.904 32.3443V49.567C230.904 51.0682 231.147 52.1231 231.634 52.7317C232.121 53.2997 232.872 53.7054 233.886 53.9488V55.2877L227.253 59C226.36 58.6349 225.528 58.0466 224.757 57.2351C223.986 56.3831 223.601 55.6123 223.601 54.9225L215.994 59C215.872 58.9189 215.69 58.8174 215.446 58.6957C215.203 58.5334 214.777 58.2291 214.168 57.7828C213.6 57.296 213.093 56.7888 212.647 56.2614C211.429 54.9225 210.821 53.4011 210.821 51.6971V41.7164C210.821 41.0672 211.876 40.2355 213.986 39.2212C216.095 38.2069 218.205 37.3752 220.315 36.7261L223.54 35.6915C223.54 33.3789 222.932 31.7763 221.714 30.8837C220.497 29.9506 218.144 29.484 214.655 29.484V27.6583C220.944 25.4268 224.473 24.3111 225.244 24.3111C226.583 24.3111 227.861 25.1834 229.078 26.928C230.295 28.6726 230.904 30.478 230.904 32.3443ZM218.124 49.5062C218.124 50.5611 218.428 51.4334 219.037 52.1231C219.686 52.7722 220.396 53.0968 221.167 53.0968C221.938 53.0968 222.749 52.7925 223.601 52.1839V38.4301C222.587 38.7952 221.816 39.0995 221.288 39.3429C220.802 39.5864 220.274 39.9718 219.706 40.4992C218.651 41.473 218.124 43.1567 218.124 45.5504V49.5062ZM244.302 17.9819V25.2239H247.406L246.797 28.206H244.302V49.9931C244.302 52.4679 245.134 53.8677 246.797 54.1922V55.5311L240.651 59C239.758 58.6349 238.926 58.0466 238.156 57.2351C237.385 56.3831 236.999 55.592 236.999 54.8617V28.2668H234.504L235.113 25.7108C236.33 25.7108 237.79 24.8994 239.494 23.2765C241.239 21.6131 242.274 19.8482 242.598 17.9819H244.302Z" fill="black" fill-opacity="0.6"/>
<path d="M170.904 16.3996H169.214V19.3672L171.767 17.8537L170.904 16.3996ZM180.033 13.2958L178.977 14.6159L178.998 14.6324L179.019 14.6482L180.033 13.2958ZM182.467 15.9127L181.092 16.8953L181.1 16.9072L181.109 16.9189L182.467 15.9127ZM178.694 32.892L178.031 31.3372L173.647 33.2082L178.23 34.5175L178.694 32.892ZM181.859 35.6306L180.535 36.6825L180.542 36.6909L180.549 36.6992L181.859 35.6306ZM177.051 56.444L177.659 58.0214L177.667 58.0184L177.051 56.444ZM165.488 56.3831L164.117 57.3717L164.124 57.3821L164.132 57.3924L165.488 56.3831ZM161.106 17.069H159.416V18.4287L160.744 18.7202L161.106 17.069ZM161.106 15.7301L160.275 14.2579L159.416 14.7431V15.7301H161.106ZM167.253 12.2612L167.893 10.6966L167.135 10.3866L166.422 10.789L167.253 12.2612ZM169.748 14.087L168.495 15.2211L168.508 15.2364L168.523 15.2513L169.748 14.087ZM176.382 52.4274L177.438 53.7474L178.072 53.2399V52.4274H176.382ZM170.904 39.4038L169.857 38.077L169.214 38.5846V39.4038H170.904ZM175.651 19.6859L174.17 20.5006L174.195 20.5454L174.222 20.5886L175.651 19.6859ZM170.904 20.2945L169.584 19.2384L169.214 19.7015V20.2945H170.904ZM170.904 32.892H169.214V35.1161L171.357 34.5208L170.904 32.892ZM170.904 16.3996L171.767 17.8537C174.055 16.4969 175.798 15.4877 177.003 14.8204C177.608 14.4853 178.059 14.2466 178.368 14.0956C178.525 14.0188 178.621 13.9766 178.67 13.9573C178.695 13.9474 178.684 13.9527 178.65 13.9627C178.644 13.9642 178.49 14.0126 178.268 14.0126V12.3221V10.6316C178.006 10.6316 177.794 10.6907 177.715 10.7134C177.606 10.7446 177.506 10.7818 177.424 10.8143C177.258 10.88 177.073 10.9652 176.883 11.0583C176.497 11.247 175.987 11.5181 175.365 11.8626C174.115 12.5544 172.339 13.5839 170.042 14.9455L170.904 16.3996ZM178.268 12.3221V14.0126C178.19 14.0126 178.131 14.004 178.096 13.9972C178.06 13.9904 178.041 13.9838 178.039 13.9833C178.037 13.9826 178.047 13.986 178.07 13.9965C178.093 14.0069 178.125 14.0227 178.167 14.0457C178.344 14.1436 178.611 14.3227 178.977 14.6159L180.033 13.2958L181.089 11.9758C180.644 11.6198 180.211 11.312 179.8 11.0854C179.433 10.8831 178.887 10.6316 178.268 10.6316V12.3221ZM180.033 13.2958L179.019 14.6482C179.65 15.1219 180.346 15.8513 181.092 16.8953L182.467 15.9127L183.843 14.9301C182.966 13.7021 182.039 12.6869 181.047 11.9434L180.033 13.2958ZM182.467 15.9127L181.109 16.9189C181.768 17.8085 181.994 18.5391 181.994 19.1382H183.685H185.375C185.375 17.6275 184.79 16.2078 183.826 14.9065L182.467 15.9127ZM183.685 19.1382H181.994V29.3623H183.685H185.375V19.1382H183.685ZM183.685 29.3623H181.994C181.994 29.0804 182.118 28.9682 182.045 29.0611C181.975 29.1497 181.805 29.3209 181.461 29.5644C180.774 30.0501 179.655 30.6441 178.031 31.3372L178.694 32.892L179.358 34.4468C181.061 33.72 182.436 33.0156 183.413 32.3247C183.901 31.9799 184.354 31.5933 184.7 31.1545C185.043 30.7199 185.375 30.1107 185.375 29.3623H183.685ZM178.694 32.892L178.23 34.5175C178.322 34.5438 178.581 34.6595 179.018 35.0375C179.44 35.4024 179.946 35.9404 180.535 36.6825L181.859 35.6306L183.182 34.5787C182.514 33.7386 181.864 33.0289 181.231 32.4809C180.613 31.9461 179.918 31.4837 179.159 31.2666L178.694 32.892ZM181.859 35.6306L180.549 36.6992C181.695 38.1043 182.055 39.1314 182.055 39.8298H183.745H185.436C185.436 38.0128 184.538 36.2404 183.169 34.562L181.859 35.6306ZM183.745 39.8298H182.055V53.3402H183.745H185.436V39.8298H183.745ZM183.745 53.3402H182.055C182.055 52.8875 182.241 52.5779 182.318 52.4638C182.406 52.3334 182.488 52.2581 182.51 52.2387C182.555 52.1984 182.553 52.2089 182.448 52.273C182.251 52.3926 181.902 52.5751 181.361 52.8259C180.293 53.3208 178.659 54.0004 176.436 54.8695L177.051 56.444L177.667 58.0184C179.906 57.143 181.619 56.433 182.783 55.8933C183.358 55.6268 183.845 55.3808 184.206 55.1605C184.38 55.0548 184.587 54.9175 184.772 54.7518C184.863 54.6695 184.998 54.537 185.121 54.355C185.232 54.1893 185.436 53.8336 185.436 53.3402H183.745ZM177.051 56.444L176.443 54.8665C174.247 55.7128 172.5 56.3374 171.19 56.7479C169.799 57.1838 169.106 57.3095 168.896 57.3095V59V60.6905C169.701 60.6905 170.873 60.3902 172.201 59.9741C173.61 59.5326 175.433 58.8791 177.659 58.0214L177.051 56.444ZM168.896 59V57.3095C168.921 57.3095 168.75 57.3169 168.343 57.005C167.945 56.6993 167.443 56.1787 166.844 55.3739L165.488 56.3831L164.132 57.3924C164.831 58.3321 165.546 59.12 166.284 59.6866C167.014 60.2469 167.898 60.6905 168.896 60.6905V59ZM165.488 56.3831L166.859 55.3945C165.836 53.975 165.292 52.243 165.292 50.1148H163.601H161.911C161.911 52.8552 162.625 55.3021 164.117 57.3717L165.488 56.3831ZM163.601 50.1148H165.292V20.903H163.601H161.911V50.1148H163.601ZM163.601 20.903H165.292C165.292 19.6163 165.051 18.388 164.395 17.3793C163.707 16.3233 162.679 15.6834 161.469 15.4178L161.106 17.069L160.744 18.7202C161.197 18.8197 161.416 19.0014 161.561 19.2235C161.736 19.4928 161.911 19.9989 161.911 20.903H163.601ZM161.106 17.069H162.797V15.7301H161.106H159.416V17.069H161.106ZM161.106 15.7301L161.937 17.2024L168.084 13.7335L167.253 12.2612L166.422 10.789L160.275 14.2579L161.106 15.7301ZM167.253 12.2612L166.613 13.8259C167.231 14.0786 167.861 14.5212 168.495 15.2211L169.748 14.087L171.002 12.9528C170.093 11.9487 169.06 11.1742 167.893 10.6966L167.253 12.2612ZM169.748 14.087L168.523 15.2513C169.149 15.9112 169.214 16.2844 169.214 16.3996H170.904H172.595C172.595 15.0542 171.889 13.8856 170.974 12.9226L169.748 14.087ZM174.008 53.4011V55.0916C175.278 55.0916 176.43 54.5531 177.438 53.7474L176.382 52.4274L175.326 51.1073C174.71 51.5999 174.28 51.7106 174.008 51.7106V53.4011ZM176.382 52.4274H178.072V42.9944H176.382H174.691V52.4274H176.382ZM176.382 42.9944H178.072C178.072 41.3515 177.799 39.8196 176.998 38.6575C176.118 37.3818 174.781 36.8004 173.278 36.8004V38.4909V40.1814C173.844 40.1814 174.058 40.3507 174.214 40.5761C174.447 40.9152 174.691 41.635 174.691 42.9944H176.382ZM173.278 38.4909V36.8004C172.011 36.8004 170.861 37.284 169.857 38.077L170.904 39.4038L171.952 40.7306C172.489 40.3065 172.922 40.1814 173.278 40.1814V38.4909ZM170.904 39.4038H169.214V48.8976H170.904H172.595V39.4038H170.904ZM170.904 48.8976H169.214C169.214 50.5406 169.487 52.0724 170.288 53.2345C171.168 54.5103 172.505 55.0916 174.008 55.0916V53.4011V51.7106C173.442 51.7106 173.228 51.5413 173.072 51.3159C172.839 50.9769 172.595 50.257 172.595 48.8976H170.904ZM176.382 22.4853H178.072C178.072 21.1353 177.77 19.8743 177.081 18.7832L175.651 19.6859L174.222 20.5886C174.507 21.0392 174.691 21.6445 174.691 22.4853H176.382ZM175.651 19.6859L177.133 18.8712C176.793 18.2535 176.322 17.7098 175.691 17.3273C175.056 16.9429 174.354 16.7782 173.643 16.7782V18.4687V20.1592C173.825 20.1592 173.903 20.1975 173.938 20.2187C173.977 20.2419 174.064 20.3068 174.17 20.5006L175.651 19.6859ZM173.643 18.4687V16.7782C171.979 16.7782 170.629 17.9324 169.584 19.2384L170.904 20.2945L172.224 21.3505C173.127 20.2222 173.603 20.1592 173.643 20.1592V18.4687ZM170.904 20.2945H169.214V32.892H170.904H172.595V20.2945H170.904ZM170.904 32.892L171.357 34.5208C173.406 33.9515 175.116 33.004 176.311 31.5704C177.521 30.1182 178.072 28.3237 178.072 26.3194H176.382H174.691C174.691 27.6825 174.329 28.6672 173.714 29.4059C173.083 30.1632 172.054 30.8182 170.452 31.2632L170.904 32.892ZM176.382 26.3194H178.072V22.4853H176.382H174.691V26.3194H176.382ZM205.648 25.2848L204.592 26.6049L204.613 26.6214L204.634 26.6372L205.648 25.2848ZM208.082 27.9017L206.707 28.8843L206.715 28.8962L206.724 28.9079L208.082 27.9017ZM206.074 44.029L206.819 45.5467V45.5467L206.074 44.029ZM199.806 46.6459L200.33 48.2529L200.34 48.2497L200.35 48.2464L199.806 46.6459ZM196.58 47.6196V45.9291H194.89V47.6196H196.58ZM200.658 53.4011L200.219 55.0337L200.239 55.0391L200.259 55.044L200.658 53.4011ZM205.465 53.8879H207.156V52.1975H205.465V53.8879ZM205.465 55.6528L206.003 57.2556L207.156 56.8689V55.6528H205.465ZM191.103 56.444L189.732 57.4326L189.737 57.4403L189.743 57.4479L191.103 56.444ZM196.154 26.928L196.739 28.5143L196.751 28.5097L196.154 26.928ZM201.205 31.1271L199.788 32.0484L199.799 32.0652L199.81 32.0817L201.205 31.1271ZM196.519 30.8229L195.623 29.3893L194.829 29.8859V30.8229H196.519ZM196.519 44.881H194.829V47.1051L196.972 46.5098L196.519 44.881ZM204.127 24.3111V26.0016C203.94 26.0016 203.803 25.9665 203.745 25.9495C203.679 25.9304 203.64 25.9125 203.633 25.9094C203.622 25.9044 203.656 25.9197 203.748 25.9784C203.928 26.0938 204.205 26.295 204.592 26.6049L205.648 25.2848L206.704 23.9648C206.28 23.6255 205.897 23.3398 205.57 23.1307C205.408 23.0271 205.227 22.9206 205.039 22.8345C204.896 22.7693 204.553 22.6206 204.127 22.6206V24.3111ZM205.648 25.2848L204.634 26.6372C205.265 27.1109 205.961 27.8403 206.707 28.8843L208.082 27.9017L209.458 26.9191C208.581 25.6911 207.654 24.6759 206.662 23.9324L205.648 25.2848ZM208.082 27.9017L206.724 28.9079C207.383 29.7975 207.609 30.5281 207.609 31.1271H209.299H210.99C210.99 29.6165 210.405 28.1967 209.441 26.8955L208.082 27.9017ZM209.299 31.1271H207.609V41.3512H209.299H210.99V31.1271H209.299ZM209.299 41.3512H207.609C207.609 41.1079 207.699 40.9795 207.689 40.9958C207.676 41.0152 207.605 41.1084 207.413 41.2677C207.026 41.5893 206.357 42.0073 205.329 42.5113L206.074 44.029L206.819 45.5467C207.942 44.9958 208.885 44.4401 209.573 43.8691C210.175 43.3694 210.99 42.5253 210.99 41.3512H209.299ZM206.074 44.029L205.329 42.5113C203.237 43.5379 201.214 44.3815 199.261 45.0454L199.806 46.6459L200.35 48.2464C202.454 47.5309 204.611 46.6298 206.819 45.5467L206.074 44.029ZM199.806 46.6459L199.281 45.0389C198.291 45.3623 197.539 45.601 197.02 45.7578C196.758 45.8367 196.569 45.8907 196.444 45.9236C196.38 45.9403 196.349 45.9475 196.34 45.9492C196.288 45.96 196.408 45.9291 196.58 45.9291V47.6196V49.3101C196.793 49.3101 196.982 49.269 197.028 49.2595C197.117 49.241 197.211 49.2178 197.302 49.1939C197.486 49.1456 197.721 49.0779 197.997 48.9945C198.553 48.8267 199.333 48.5786 200.33 48.2529L199.806 46.6459ZM196.58 47.6196H194.89C194.89 49.4185 195.281 51.0541 196.218 52.3823C197.167 53.7285 198.555 54.5867 200.219 55.0337L200.658 53.4011L201.096 51.7685C200.042 51.4851 199.391 51.0147 198.981 50.4337C198.559 49.8348 198.271 48.9447 198.271 47.6196H196.58ZM200.658 53.4011L200.259 55.044C201.765 55.4091 203.509 55.5784 205.465 55.5784V53.8879V52.1975C203.689 52.1975 202.228 52.0422 201.056 51.7582L200.658 53.4011ZM205.465 53.8879H203.775V55.6528H205.465H207.156V53.8879H205.465ZM205.465 55.6528L204.928 54.0501C201.604 55.1648 199.065 55.9975 197.306 56.5505C196.424 56.8275 195.751 57.0304 195.277 57.1626C195.039 57.2291 194.867 57.2733 194.752 57.2996C194.576 57.3396 194.652 57.3095 194.815 57.3095V59V60.6905C195.09 60.6905 195.374 60.6255 195.504 60.5958C195.695 60.5524 195.925 60.492 196.187 60.419C196.712 60.2723 197.426 60.0568 198.319 59.7759C200.11 59.2132 202.673 58.3723 206.003 57.2556L205.465 55.6528ZM194.815 59V57.3095C194.43 57.3095 193.632 57.0236 192.463 55.4401L191.103 56.444L189.743 57.4479C191.09 59.2724 192.766 60.6905 194.815 60.6905V59ZM191.103 56.444L192.474 55.4554C191.44 54.0207 190.907 52.3442 190.907 50.3582H189.216H187.526C187.526 52.9974 188.251 55.378 189.732 57.4326L191.103 56.444ZM189.216 50.3582H190.907V29.91H189.216H187.526V50.3582H189.216ZM189.216 29.91H190.907C190.907 30.4442 190.652 30.7905 190.579 30.8844C190.483 31.0091 190.396 31.0782 190.379 31.0914C190.341 31.122 190.353 31.1071 190.468 31.0435C190.682 30.9249 191.055 30.747 191.618 30.5046C192.732 30.0258 194.433 29.3637 196.739 28.5142L196.154 26.928L195.57 25.3417C193.25 26.1963 191.482 26.8832 190.283 27.3984C189.691 27.653 189.196 27.8833 188.832 28.0843C188.658 28.1804 188.453 28.303 188.27 28.449C188.181 28.52 188.04 28.6412 187.908 28.8124C187.799 28.9529 187.526 29.3403 187.526 29.91H189.216ZM196.154 26.928L196.751 28.5097C199.055 27.6406 200.849 26.9963 202.143 26.5715C202.792 26.3586 203.296 26.207 203.667 26.1105C204.093 25.9994 204.196 26.0016 204.127 26.0016V24.3111V22.6206C203.712 22.6206 203.225 22.7318 202.814 22.8388C202.348 22.9603 201.769 23.1359 201.089 23.3591C199.726 23.8066 197.879 24.4708 195.558 25.3462L196.154 26.928ZM201.997 33.9875H203.687C203.687 32.5854 203.359 31.2805 202.601 30.1726L201.205 31.1271L199.81 32.0817C200.107 32.5155 200.306 33.1175 200.306 33.9875H201.997ZM201.205 31.1271L202.623 30.2058C201.853 29.0216 200.698 28.2195 199.197 28.2195V29.91V31.6005C199.32 31.6005 199.503 31.6098 199.788 32.0484L201.205 31.1271ZM199.197 29.91V28.2195C197.963 28.2195 196.759 28.6793 195.623 29.3893L196.519 30.8229L197.415 32.2564C198.227 31.7493 198.808 31.6005 199.197 31.6005V29.91ZM196.519 30.8229H194.829V44.881H196.519H198.21V30.8229H196.519ZM196.519 44.881L196.972 46.5098C199.021 45.9405 200.731 44.993 201.926 43.5593C203.136 42.1071 203.687 40.3127 203.687 38.3084H201.997H200.306C200.306 39.6715 199.944 40.6562 199.329 41.3949C198.698 42.1521 197.669 42.8072 196.067 43.2522L196.519 44.881ZM201.997 38.3084H203.687V33.9875H201.997H200.306V38.3084H201.997ZM231.634 52.7317L230.314 53.7877L230.332 53.8101L230.351 53.8318L231.634 52.7317ZM233.886 53.9488H235.576V52.616L234.281 52.305L233.886 53.9488ZM233.886 55.2877L234.712 56.7629L235.576 56.2788V55.2877H233.886ZM227.253 59L226.612 60.5646L227.367 60.8732L228.078 60.4752L227.253 59ZM224.757 57.2351L223.504 58.3693L223.518 58.3845L223.532 58.3995L224.757 57.2351ZM223.601 54.9225H225.292V52.0984L222.802 53.4326L223.601 54.9225ZM215.994 59L215.056 60.4066L215.899 60.9687L216.792 60.49L215.994 59ZM215.446 58.6957L214.508 60.1023L214.596 60.1607L214.69 60.2077L215.446 58.6957ZM214.168 57.7828L213.068 59.0664L213.117 59.1081L213.168 59.1461L214.168 57.7828ZM212.647 56.2614L213.937 55.1694L213.918 55.1465L213.898 55.1243L212.647 56.2614ZM220.315 36.7261L220.812 38.3418L220.821 38.3388L220.831 38.3358L220.315 36.7261ZM223.54 35.6915L224.057 37.3012L225.231 36.9246V35.6915H223.54ZM221.714 30.8837L220.686 32.2253L220.7 32.2363L220.715 32.2469L221.714 30.8837ZM214.655 29.484H212.964V31.1745H214.655V29.484ZM214.655 27.6583L214.09 26.0651L212.964 26.4643V27.6583H214.655ZM229.078 26.928L227.692 27.8952V27.8952L229.078 26.928ZM219.037 52.1231L217.769 53.2415L217.804 53.2811L217.841 53.3184L219.037 52.1231ZM223.601 52.1839L224.584 53.5595L225.292 53.0539V52.1839H223.601ZM223.601 38.4301H225.292V36.0248L223.028 36.8395L223.601 38.4301ZM221.288 39.3429L220.58 37.808L220.556 37.8191L220.532 37.8309L221.288 39.3429ZM219.706 40.4992L220.853 41.7414L220.856 41.738L219.706 40.4992ZM230.904 32.3443H229.213V49.567H230.904H232.594V32.3443H230.904ZM230.904 49.567H229.213C229.213 51.1469 229.449 52.706 230.314 53.7877L231.634 52.7317L232.954 51.6756C232.846 51.5401 232.594 50.9895 232.594 49.567H230.904ZM231.634 52.7317L230.351 53.8318C231.145 54.7581 232.264 55.298 233.491 55.5926L233.886 53.9488L234.281 52.305C233.48 52.1128 233.098 51.8412 232.918 51.6315L231.634 52.7317ZM233.886 53.9488H232.196V55.2877H233.886H235.576V53.9488H233.886ZM233.886 55.2877L233.06 53.8125L226.427 57.5248L227.253 59L228.078 60.4752L234.712 56.7629L233.886 55.2877ZM227.253 59L227.893 57.4354C227.254 57.1741 226.615 56.7365 225.983 56.0708L224.757 57.2351L223.532 58.3995C224.441 59.3566 225.466 60.0956 226.612 60.5646L227.253 59ZM224.757 57.2351L226.011 56.101C225.347 55.3668 225.292 54.9906 225.292 54.9225H223.601H221.911C221.911 56.2339 222.626 57.3994 223.504 58.3693L224.757 57.2351ZM223.601 54.9225L222.802 53.4326L215.195 57.51L215.994 59L216.792 60.49L224.4 56.4125L223.601 54.9225ZM215.994 59L216.932 57.5934C216.722 57.4535 216.465 57.315 216.202 57.1837L215.446 58.6957L214.69 60.2077C214.914 60.3199 215.023 60.3842 215.056 60.4066L215.994 59ZM215.446 58.6957L216.384 57.2891C216.176 57.1505 215.778 56.8671 215.168 56.4196L214.168 57.7828L213.168 59.1461C213.775 59.5912 214.23 59.9164 214.508 60.1023L215.446 58.6957ZM214.168 57.7828L215.268 56.4993C214.763 56.0664 214.321 55.6227 213.937 55.1694L212.647 56.2614L211.356 57.3534C211.865 57.955 212.437 58.5256 213.068 59.0664L214.168 57.7828ZM212.647 56.2614L213.898 55.1243C212.944 54.0755 212.511 52.9529 212.511 51.6971H210.821H209.13C209.13 53.8492 209.915 55.7696 211.396 57.3985L212.647 56.2614ZM210.821 51.6971H212.511V41.7164H210.821H209.13V51.6971H210.821ZM210.821 41.7164H212.511C212.511 41.8676 212.48 41.9869 212.451 42.0643C212.423 42.1387 212.396 42.1761 212.396 42.1761C212.395 42.1766 212.412 42.1536 212.457 42.1083C212.502 42.0636 212.568 42.005 212.659 41.9332C213.043 41.6302 213.706 41.2316 214.718 40.7448L213.986 39.2212L213.253 37.6977C212.156 38.2252 211.236 38.7495 210.565 39.2783C210.23 39.5429 209.9 39.8526 209.642 40.2145C209.385 40.5748 209.13 41.087 209.13 41.7164H210.821ZM213.986 39.2212L214.718 40.7448C216.756 39.7649 218.787 38.9647 220.812 38.3418L220.315 36.7261L219.818 35.1103C217.623 35.7857 215.434 36.649 213.253 37.6977L213.986 39.2212ZM220.315 36.7261L220.831 38.3358L224.057 37.3012L223.54 35.6915L223.024 34.0818L219.798 35.1163L220.315 36.7261ZM223.54 35.6915H225.231C225.231 33.136 224.559 30.8732 222.714 29.5205L221.714 30.8837L220.715 32.2469C221.304 32.6794 221.85 33.6217 221.85 35.6915H223.54ZM221.714 30.8837L222.743 29.5421C221.845 28.8535 220.667 28.4338 219.365 28.1757C218.044 27.9137 216.465 27.7935 214.655 27.7935V29.484V31.1745C216.334 31.1745 217.676 31.2876 218.708 31.4921C219.759 31.7006 220.367 31.9808 220.686 32.2253L221.714 30.8837ZM214.655 29.484H216.345V27.6583H214.655H212.964V29.484H214.655ZM214.655 27.6583L215.22 29.2514C218.358 28.138 220.791 27.3088 222.528 26.7598C223.398 26.4847 224.077 26.2854 224.573 26.1566C225.141 26.0093 225.301 26.0016 225.244 26.0016V24.3111V22.6206C224.802 22.6206 224.232 22.7523 223.724 22.884C223.146 23.0341 222.404 23.2532 221.509 23.536C219.716 24.1027 217.24 24.9471 214.09 26.0651L214.655 27.6583ZM225.244 24.3111V26.0016C225.765 26.0016 226.6 26.3303 227.692 27.8952L229.078 26.928L230.465 25.9607C229.122 24.0364 227.401 22.6206 225.244 22.6206V24.3111ZM229.078 26.928L227.692 27.8952C228.74 29.3972 229.213 30.8709 229.213 32.3443H230.904H232.594C232.594 30.0851 231.851 27.9479 230.465 25.9607L229.078 26.928ZM218.124 49.5062H216.433C216.433 50.9085 216.848 52.1979 217.769 53.2415L219.037 52.1231L220.304 51.0046C220.008 50.6688 219.814 50.2136 219.814 49.5062H218.124ZM219.037 52.1231L217.841 53.3184C218.743 54.2197 219.863 54.7873 221.167 54.7873V53.0968V51.4063C220.928 51.4063 220.629 51.3248 220.232 50.9277L219.037 52.1231ZM221.167 53.0968V54.7873C222.396 54.7873 223.546 54.3009 224.584 53.5595L223.601 52.1839L222.618 50.8083C221.952 51.2841 221.479 51.4063 221.167 51.4063V53.0968ZM223.601 52.1839H225.292V38.4301H223.601H221.911V52.1839H223.601ZM223.601 38.4301L223.028 36.8395C222 37.2098 221.175 37.5336 220.58 37.808L221.288 39.3429L221.997 40.8778C222.457 40.6654 223.174 40.3806 224.174 40.0206L223.601 38.4301ZM221.288 39.3429L220.532 37.8309C219.855 38.1695 219.196 38.6659 218.556 39.2605L219.706 40.4992L220.856 41.738C221.352 41.2777 221.748 41.0032 222.044 40.855L221.288 39.3429ZM219.706 40.4992L218.56 39.2571C216.986 40.7099 216.433 42.9863 216.433 45.5504H218.124H219.814C219.814 43.3271 220.317 42.236 220.853 41.7414L219.706 40.4992ZM218.124 45.5504H216.433V49.5062H218.124H219.814V45.5504H218.124ZM244.302 17.9819H245.993V16.2914H244.302V17.9819ZM244.302 25.2239H242.612V26.9144H244.302V25.2239ZM247.406 25.2239L249.062 25.562L249.476 23.5335H247.406V25.2239ZM246.797 28.206V29.8965H248.178L248.454 28.544L246.797 28.206ZM244.302 28.206V26.5155H242.612V28.206H244.302ZM246.797 54.1922H248.488V52.7997L247.121 52.533L246.797 54.1922ZM246.797 55.5311L247.628 57.0033L248.488 56.5182V55.5311H246.797ZM240.651 59L240.011 60.5646L240.769 60.8747L241.482 60.4722L240.651 59ZM238.156 57.2351L236.902 58.3693L236.916 58.3845L236.93 58.3995L238.156 57.2351ZM236.999 28.2668H238.69V26.5763H236.999V28.2668ZM234.504 28.2668L232.86 27.8753L232.364 29.9573H234.504V28.2668ZM235.113 25.7108V24.0203H233.777L233.468 25.3193L235.113 25.7108ZM239.494 23.2765L240.66 24.5006L240.661 24.5L239.494 23.2765ZM242.598 17.9819V16.2914H241.176L240.933 17.6922L242.598 17.9819ZM244.302 17.9819H242.612V25.2239H244.302H245.993V17.9819H244.302ZM244.302 25.2239V26.9144H247.406V25.2239V23.5335H244.302V25.2239ZM247.406 25.2239L245.75 24.8859L245.141 27.8679L246.797 28.206L248.454 28.544L249.062 25.562L247.406 25.2239ZM246.797 28.206V26.5155H244.302V28.206V29.8965H246.797V28.206ZM244.302 28.206H242.612V49.9931H244.302H245.993V28.206H244.302ZM244.302 49.9931H242.612C242.612 51.3885 242.841 52.6994 243.473 53.7626C244.146 54.8953 245.191 55.6012 246.474 55.8514L246.797 54.1922L247.121 52.533C246.74 52.4587 246.538 52.3025 246.379 52.0355C246.179 51.6989 245.993 51.0725 245.993 49.9931H244.302ZM246.797 54.1922H245.107V55.5311H246.797H248.488V54.1922H246.797ZM246.797 55.5311L245.967 54.0589L239.82 57.5278L240.651 59L241.482 60.4722L247.628 57.0033L246.797 55.5311ZM240.651 59L241.291 57.4354C240.652 57.1741 240.014 56.7365 239.381 56.0708L238.156 57.2351L236.93 58.3995C237.839 59.3566 238.864 60.0956 240.011 60.5646L240.651 59ZM238.156 57.2351L239.409 56.101C238.765 55.3896 238.69 54.9892 238.69 54.8617H236.999H235.309C235.309 56.1947 236.004 57.3767 236.902 58.3693L238.156 57.2351ZM236.999 54.8617H238.69V28.2668H236.999H235.309V54.8617H236.999ZM236.999 28.2668V26.5763H234.504V28.2668V29.9573H236.999V28.2668ZM234.504 28.2668L236.149 28.6584L236.757 26.1024L235.113 25.7108L233.468 25.3193L232.86 27.8753L234.504 28.2668ZM235.113 25.7108V27.4013C237.022 27.4013 238.899 26.178 240.66 24.5006L239.494 23.2765L238.329 22.0523C236.682 23.6207 235.638 24.0203 235.113 24.0203V25.7108ZM239.494 23.2765L240.661 24.5C242.596 22.6553 243.862 20.5813 244.264 18.2715L242.598 17.9819L240.933 17.6922C240.685 19.115 239.882 20.5708 238.328 22.053L239.494 23.2765ZM242.598 17.9819V19.6724H244.302V17.9819V16.2914H242.598V17.9819Z" fill="black" fill-opacity="0.6" mask="url(#path-3-outside-2_312_1037)"/>
</svg>
